<?xml version="1.0" encoding="iso-8859-1"?>
<!-- Generator: Adobe Illustrator 19.0.0, SVG Export Plug-In . SVG Version: 6.00 Build 0)  -->
<svg version="1.1" id="Capa_1" xmlns="http://www.w3.org/2000/svg" xmlns:xlink="http://www.w3.org/1999/xlink" x="0px" y="0px"
	 viewBox="0 0 496 496" style="enable-background:new 0 0 496 496;" xml:space="preserve">
<path style="fill:#F0BC5E;" d="M264,32h-32c-39.704,0-72,32.296-72,72h176C336,64.296,303.704,32,264,32z"/>
<path d="M392.704,317.832L304,290.12v-22.288c13.688-11.32,23.824-26.728,28.712-44.304C352.528,221.16,368,204.44,368,184v-80
	C368,46.656,321.344,0,264,0h-32c-57.344,0-104,46.656-104,104v80c0,20.44,15.472,37.16,35.288,39.52
	c4.888,17.576,15.024,32.984,28.712,44.304v22.288l-88.704,27.72C79.792,325.176,64,346.664,64,371.288V496h368V371.288
	C432,346.664,416.208,325.176,392.704,317.832z M160,142.104v2.704c-5.944,1.216-11.328,3.856-16,7.392v-25.632
	C148.056,132.2,153.48,137.408,160,142.104z M153.928,112H342.08c-9.376,20.64-52.744,40-94.072,40S163.304,132.64,153.928,112z
	 M336,142.104c6.52-4.696,11.944-9.904,16-15.528v25.632c-4.672-3.536-10.056-6.184-16-7.392V142.104z M335.664,206.632
	c0.168-2.2,0.336-4.392,0.336-6.632v-38.528c9.288,3.312,16,12.112,16,22.528C352,194.536,345.128,203.416,335.664,206.632z M232,16
	h32c45.824,0,83.536,35.216,87.592,80H144.408C148.464,51.216,186.176,16,232,16z M144,184c0-10.416,6.712-19.216,16-22.528V200
	c0,2.24,0.168,4.432,0.336,6.632C150.872,203.416,144,194.536,144,184z M176,200v-48.392C196.856,161.864,223.088,168,248,168
	s51.144-6.136,72-16.392V200c0,39.696-32.304,72-72,72S176,239.696,176,200z M248,288c14.408,0,27.984-3.552,40-9.712v15.024
	c-4.048,4.92-17.376,18.688-40,18.688c-22.672,0-35.928-13.712-40-18.688v-15.024C220.016,284.448,233.592,288,248,288z
	 M197.192,305.256C204.288,313.176,221.144,328,248,328s43.712-14.824,50.808-22.744l8.304,2.592L248,386.664l-59.112-78.816
	L197.192,305.256z M108.072,333.112l64.616-20.192L241.6,404.8l6.4-4.8l6.4,4.8l68.912-91.88l64.616,20.192
	C404.72,338.352,416,353.696,416,371.288V416h-48v-48h-16v112H144V368h-16v48H80v-44.712C80,353.696,91.28,338.352,108.072,333.112z
	 M80,432h48v48H80V432z M368,480v-48h48v48H368z"/>
<circle cx="288" cy="176" r="8"/>
<circle cx="208" cy="176" r="8"/>
<path d="M248,248c17.648,0,32-14.352,32-32h-16c0,8.824-7.176,16-16,16s-16-7.176-16-16h-16C216,233.648,230.352,248,248,248z"/>
<rect x="240" y="64" width="16" height="16"/>
<path style="fill:#F0BC5E;" d="M248,392c-17.648,0-32,14.352-32,32c0,14.88,10.208,27.432,24,30.984V480h40v-56
	C280,406.352,265.648,392,248,392z"/>
<g>
</g>
<g>
</g>
<g>
</g>
<g>
</g>
<g>
</g>
<g>
</g>
<g>
</g>
<g>
</g>
<g>
</g>
<g>
</g>
<g>
</g>
<g>
</g>
<g>
</g>
<g>
</g>
<g>
</g>
</svg>
