<svg width="86" height="93" viewBox="0 0 86 93" fill="none" xmlns="http://www.w3.org/2000/svg">
<path d="M10.1397 22.4255C9.38865 28.2027 7.54507 47.9959 20.0064 67.0029C27.6538 78.6942 37.3839 85.0527 42.9147 88.0609C48.2064 85.7022 59.5411 79.754 68.0079 67.0371C80.9472 47.6541 77.5673 27.0063 76.7138 22.4255C73.5046 19.759 61.2823 10.2897 43.0512 10.4265C25.2981 10.5632 13.4172 19.7248 10.1397 22.4255Z" fill="white" stroke="#4C545C" stroke-width="0.153571" stroke-miterlimit="10"/>
<path d="M12.0175 23.5878C11.3005 29.0574 9.55937 47.6541 21.3037 65.533C28.5074 76.5064 37.657 82.4888 42.8464 85.3603C47.8309 83.1383 58.4828 77.532 66.4375 65.5671C78.6257 47.3123 75.4506 27.9293 74.6312 23.5878C71.6269 21.0923 60.1215 12.1699 42.9488 12.3067C26.2541 12.4092 15.0901 21.0581 12.0175 23.5878Z" fill="white" stroke="#4C545C" stroke-width="0.153571" stroke-miterlimit="10"/>
<path d="M56.1467 26.8683C55.1069 28.268 54.277 29.7277 53.6571 31.2475C52.4374 34.2469 51.6275 36.0866 51.2276 36.7664L51.0776 36.9464C50.9976 36.7264 50.9376 36.5565 50.8976 36.4365C50.3377 34.6368 49.8778 33.3871 49.5179 32.6872C49.158 31.9873 48.6181 31.3174 47.8982 30.6776C46.0785 29.0579 44.0089 28.248 41.6894 28.248C39.5498 28.248 37.7701 28.8479 36.3504 30.0477C34.9306 31.2275 34.2207 32.7172 34.2207 34.5168C34.2207 37.8762 36.7503 40.1658 41.8093 41.3856L46.8784 42.6153C54.097 44.355 57.7064 48.1643 57.7064 54.0432C57.7064 57.3226 56.4666 60.0821 53.9871 62.3217C51.5275 64.5413 48.4781 65.6511 44.8388 65.6511C42.5592 65.6511 40.0097 65.3011 37.1902 64.6012L33.6808 63.7314C32.2611 63.3915 31.0913 63.2215 30.1715 63.2215C28.9517 63.2215 27.692 63.6114 26.3922 64.3913L26.1522 63.9714C28.6318 60.2321 30.3715 56.6727 31.3713 53.2934L31.9112 53.4433C32.3311 56.5827 33.5909 59.0223 35.6905 60.762C37.7901 62.5016 40.5396 63.3715 43.9389 63.3715C46.6184 63.3715 48.748 62.7516 50.3277 61.5118C51.9075 60.2721 52.6973 58.6024 52.6973 56.5028C52.6973 54.0832 51.5975 52.0836 49.3979 50.5039C47.8182 49.3841 44.5788 48.3443 39.6797 47.3845C35.9004 46.6446 33.1609 45.4148 31.4613 43.6951C29.7616 41.9755 28.9117 39.5859 28.9117 36.5265C28.9117 33.3671 30.0415 30.8075 32.3011 28.8479C34.5807 26.8683 37.5401 25.8785 41.1795 25.8785C43.519 25.8785 46.2485 26.2984 49.3679 27.1382C50.8277 27.5381 51.9075 27.7381 52.6073 27.7381C53.5871 27.7381 54.6569 27.3982 55.8167 26.7183L56.1467 26.8683ZM58.0063 28.128L57.7364 28.578C56.9165 29.9577 56.2167 31.2774 55.6368 32.5372C54.237 35.4767 53.4472 37.1164 53.2672 37.4563L53.1172 37.6663L52.3974 37.3663L52.5173 37.0964C53.0972 35.7766 53.9371 34.0569 55.0369 31.9373L57.0765 27.9781L57.2265 27.7381L58.0063 28.128ZM49.248 34.0969C47.0484 31.7574 44.6888 30.5876 42.1693 30.5876C40.6496 30.5876 39.3898 31.0275 38.39 31.9073C37.3902 32.7872 36.8902 33.907 36.8902 35.2667C36.8902 36.7464 37.9001 38.2661 39.9197 39.8259L40.1596 39.9758L40.0097 40.2158C37.3702 39.036 36.0504 37.3263 36.0504 35.0867C36.0504 33.527 36.6103 32.2573 37.7301 31.2774C38.8499 30.2976 40.3096 29.8077 42.1093 29.8077C43.829 29.8077 45.3287 30.1777 46.6084 30.9175C47.9082 31.6374 48.858 32.6572 49.4579 33.9769L49.248 34.0969ZM56.1467 46.0047C58.8662 48.0643 60.2259 50.8838 60.2259 54.4631C60.2259 58.2824 58.7462 61.5218 55.7867 64.1813C52.8273 66.8208 49.228 68.1406 44.9887 68.1406C42.8291 68.1406 40.8795 67.9206 39.1398 67.4807L34.3407 66.3109C33.2209 66.031 32.0212 65.891 30.7414 65.891C29.6016 65.891 28.5518 66.121 27.592 66.5809L27.232 65.711C28.2719 65.2311 29.3317 64.9912 30.4115 64.9912C31.6112 64.9912 32.981 65.1711 34.5207 65.5311L39.1398 66.6409C40.9795 67.0808 42.9191 67.3007 44.9587 67.3007C48.958 67.3007 52.3574 66.031 55.1569 63.4915C57.9763 60.9319 59.3861 57.8425 59.3861 54.2232C59.3861 51.1637 58.3063 48.4842 56.1467 46.1847V46.0047ZM34.7906 54.6431C35.5305 58.2424 37.5101 60.792 40.7295 62.2917V62.5316C37.0102 61.4518 34.7606 58.8723 33.9808 54.7931L34.7906 54.6431ZM31.0413 44.9249L32.0611 45.4948C32.721 46.6746 34.6507 47.6544 37.8501 48.4343L42.6792 49.634C45.9586 50.4539 48.1382 51.1637 49.218 51.7636C50.3178 52.3435 51.0976 53.2334 51.5575 54.4331L51.3476 54.5531C50.4477 53.5133 49.4679 52.7535 48.4081 52.2735C47.3683 51.7936 45.3587 51.2037 42.3792 50.5039C38.06 49.5041 35.1606 48.6442 33.6808 47.9244C32.2011 47.1845 31.3213 46.1847 31.0413 44.9249Z" fill="#4C545C"/>
<path d="M26.524 23.4063L26.7729 22.9744L28.3237 20.053L28.4886 19.726C28.5366 19.63 28.6036 19.4921 28.6896 19.3121C29.0415 19.3161 29.2985 19.3181 29.4604 19.3181C29.7424 19.3181 30.0033 19.3161 30.2433 19.3121L30.6812 20.5629L31.5721 22.9684L31.746 23.4063C31.4001 23.4023 31.1901 23.4003 31.1161 23.4003C30.9482 23.4003 30.7012 23.4023 30.3753 23.4063C30.2873 23.0764 30.1603 22.6885 29.9943 22.2425H28.4826C28.3087 22.5945 28.1287 22.9824 27.9427 23.4063C27.5708 23.4023 27.3428 23.4003 27.2589 23.4003C27.1069 23.4003 26.8619 23.4023 26.524 23.4063ZM28.8456 21.3697H29.7784C29.5464 20.6638 29.4195 20.2749 29.3975 20.2029C29.2655 20.4969 29.1535 20.7378 29.0615 20.9258L28.8456 21.3697ZM35.6093 22.4075C35.5853 22.5255 35.5563 22.6905 35.5223 22.9024C35.4883 23.1124 35.4653 23.2754 35.4533 23.3913C35.0254 23.4533 34.6435 23.4843 34.3075 23.4843C33.9836 23.4843 33.6817 23.4443 33.4017 23.3643C33.1238 23.2823 32.8678 23.1494 32.6339 22.9654C32.4019 22.7794 32.2359 22.5615 32.1359 22.3115C32.036 22.0616 31.986 21.7816 31.986 21.4717C31.986 21.1098 32.053 20.7848 32.1869 20.4969C32.3229 20.2069 32.5169 19.966 32.7688 19.774C33.0228 19.58 33.3007 19.4421 33.6027 19.3601C33.9046 19.2761 34.2166 19.2341 34.5385 19.2341C34.8344 19.2341 35.2004 19.2721 35.6363 19.3481L35.6423 19.6C35.6463 19.71 35.6523 19.831 35.6603 19.963L35.6813 20.3049C35.4473 20.2489 35.2574 20.2109 35.1114 20.1909C34.9674 20.1709 34.8334 20.1609 34.7095 20.1609C34.4395 20.1609 34.1966 20.2149 33.9806 20.3229C33.7646 20.4309 33.5947 20.5879 33.4707 20.7938C33.3467 20.9998 33.2847 21.2277 33.2847 21.4777C33.2847 21.7056 33.3367 21.9016 33.4407 22.0656C33.5447 22.2275 33.6847 22.3535 33.8606 22.4435C34.0386 22.5315 34.2576 22.5755 34.5175 22.5755C34.6595 22.5755 34.8134 22.5645 34.9794 22.5425C35.1474 22.5185 35.3573 22.4735 35.6093 22.4075ZM35.6483 23.4063L35.8972 22.9744L37.448 20.053L37.6129 19.726C37.6609 19.63 37.7279 19.4921 37.8139 19.3121C38.1658 19.3161 38.4228 19.3181 38.5847 19.3181C38.8667 19.3181 39.1276 19.3161 39.3676 19.3121L39.8055 20.5629L40.6964 22.9684L40.8703 23.4063C40.5244 23.4023 40.3144 23.4003 40.2404 23.4003C40.0725 23.4003 39.8255 23.4023 39.4996 23.4063C39.4116 23.0764 39.2846 22.6885 39.1186 22.2425H37.6069C37.433 22.5945 37.253 22.9824 37.067 23.4063C36.6951 23.4023 36.4671 23.4003 36.3832 23.4003C36.2312 23.4003 35.9862 23.4023 35.6483 23.4063ZM37.9699 21.3697H38.9027C38.6707 20.6638 38.5438 20.2749 38.5218 20.2029C38.3898 20.4969 38.2778 20.7378 38.1858 20.9258L37.9699 21.3697ZM41.1943 23.4063C41.2383 22.9504 41.2682 22.5855 41.2842 22.3115C41.3082 21.9036 41.3322 21.3757 41.3562 20.7278C41.3742 20.2319 41.3832 19.877 41.3832 19.663V19.3121C41.6172 19.3181 41.8191 19.3211 41.9891 19.3211C42.1531 19.3211 42.368 19.3171 42.634 19.3091C42.8999 19.2991 43.1499 19.2941 43.3839 19.2941C43.6518 19.2941 43.8868 19.3101 44.0887 19.3421C44.2907 19.3741 44.4787 19.4401 44.6526 19.54C44.8286 19.64 44.9756 19.771 45.0935 19.933C45.2115 20.0949 45.3015 20.2849 45.3635 20.5029C45.4255 20.7188 45.4565 20.9418 45.4565 21.1717C45.4565 21.3977 45.4325 21.6157 45.3845 21.8256C45.3365 22.0336 45.2695 22.2215 45.1835 22.3895C45.0975 22.5575 44.9966 22.7025 44.8806 22.8244C44.7666 22.9444 44.6356 23.0474 44.4876 23.1334C44.3777 23.1974 44.2667 23.2474 44.1547 23.2833C44.0427 23.3193 43.8898 23.3483 43.6958 23.3703C43.4798 23.3943 43.2349 23.4063 42.9609 23.4063L41.7492 23.3973C41.6352 23.3973 41.4502 23.4003 41.1943 23.4063ZM42.49 22.5035C42.6 22.5135 42.715 22.5185 42.835 22.5185C43.0389 22.5185 43.2209 22.5005 43.3809 22.4645C43.5408 22.4285 43.6808 22.3515 43.8008 22.2335C43.9228 22.1156 44.0127 21.9646 44.0707 21.7806C44.1287 21.5947 44.1577 21.4047 44.1577 21.2107C44.1577 20.9728 44.1147 20.7728 44.0287 20.6108C43.9428 20.4469 43.8278 20.3329 43.6838 20.2689C43.5418 20.2049 43.3479 20.1729 43.1019 20.1729C42.9579 20.1729 42.788 20.1789 42.592 20.1909L42.49 22.5035ZM45.9364 23.4063C45.9864 22.8904 46.0224 22.4585 46.0444 22.1106C46.0684 21.7626 46.0914 21.3007 46.1133 20.7248C46.1373 20.1469 46.1493 19.764 46.1493 19.576L46.1463 19.3121C46.6183 19.3161 47.1891 19.3181 47.859 19.3181C48.4769 19.3181 49.0218 19.3161 49.4937 19.3121L49.4877 19.4111C49.4857 19.4351 49.4807 19.522 49.4727 19.672L49.4547 19.999C49.4507 20.0689 49.4487 20.1399 49.4487 20.2119C49.0628 20.1959 48.7389 20.1879 48.4769 20.1879C48.189 20.1879 47.994 20.1889 47.892 20.1909C47.792 20.1909 47.6351 20.1949 47.4211 20.2029L47.3851 20.8898C47.6211 20.8958 47.896 20.8988 48.21 20.8988C48.3219 20.8988 48.6199 20.8918 49.1038 20.8778C49.0838 21.1337 49.0648 21.4387 49.0468 21.7926C48.7009 21.7886 48.4349 21.7866 48.2489 21.7866C47.973 21.7866 47.6641 21.7936 47.3221 21.8076L47.2861 22.5365H47.6311C47.733 22.5365 47.944 22.5335 48.2639 22.5275L48.8848 22.5125C48.9768 22.5105 49.1308 22.5025 49.3467 22.4885C49.3227 22.7844 49.3028 23.0904 49.2868 23.4063C48.7988 23.4023 48.2639 23.4003 47.6821 23.4003L46.3623 23.4033L45.9364 23.4063ZM49.9196 23.4063L49.9946 22.8004L50.1806 20.6978L50.2736 19.3121C50.6415 19.3161 50.9305 19.3181 51.1404 19.3181C51.3144 19.3181 51.5803 19.3161 51.9383 19.3121C51.9643 19.4841 51.9863 19.615 52.0043 19.705C52.0222 19.793 52.0662 19.967 52.1362 20.2269C52.2082 20.4849 52.2652 20.7088 52.3072 20.8988C52.3512 21.0868 52.4162 21.4097 52.5022 21.8676C52.5901 21.5537 52.6701 21.2837 52.7421 21.0578C52.8141 20.8318 52.9041 20.5749 53.0121 20.2869C53.12 19.999 53.188 19.811 53.216 19.723C53.246 19.633 53.286 19.4961 53.336 19.3121C53.6359 19.3161 53.9299 19.3181 54.2178 19.3181C54.4138 19.3181 54.6858 19.3161 55.0337 19.3121C54.9957 19.986 54.9707 20.5649 54.9587 21.0488C54.9327 21.9966 54.9197 22.6485 54.9197 23.0044C54.9197 23.0784 54.9217 23.2124 54.9257 23.4063C54.6618 23.4023 54.4768 23.4003 54.3708 23.4003C54.2168 23.4003 54.0279 23.4023 53.8039 23.4063C53.8199 23.2264 53.8399 22.7984 53.8639 22.1226C53.8879 21.4447 53.8999 21.0118 53.8999 20.8238C53.8999 20.7418 53.8979 20.6278 53.8939 20.4819L53.501 21.7026L52.9371 23.4063C52.6771 23.4023 52.4982 23.4003 52.4002 23.4003C52.2762 23.4003 52.0862 23.4023 51.8303 23.4063L51.4614 21.7566L51.2454 20.8778C51.2374 20.8438 51.2284 20.8018 51.2184 20.7518C51.2084 20.7018 51.1924 20.6138 51.1704 20.4879L51.0954 21.3187L50.9964 23.0224L50.9874 23.4063C50.7115 23.4023 50.5355 23.4003 50.4595 23.4003C50.3556 23.4003 50.1756 23.4023 49.9196 23.4063ZM56.5124 23.4063C56.5324 23.2444 56.5564 22.9694 56.5844 22.5815C56.6124 22.1936 56.6264 21.9196 56.6264 21.7596L55.2526 19.3121C55.5546 19.3161 55.8035 19.3181 55.9995 19.3181C56.1875 19.3181 56.4124 19.3161 56.6744 19.3121C56.7544 19.5121 56.8623 19.751 56.9983 20.029C57.1363 20.3049 57.2483 20.5519 57.3343 20.7698C57.5642 20.3639 57.7492 20.048 57.8892 19.822C58.0291 19.594 58.1291 19.4241 58.1891 19.3121C58.4431 19.3161 58.687 19.3181 58.921 19.3181C59.0449 19.3181 59.2699 19.3161 59.5958 19.3121L58.2791 21.2527C58.0171 21.6407 57.8862 21.8436 57.8862 21.8616L57.8832 21.8916V21.9216L57.8802 21.9516L57.8592 22.4075C57.8452 22.7095 57.8342 23.0424 57.8262 23.4063C57.5442 23.4023 57.3263 23.4003 57.1723 23.4003C57.0143 23.4003 56.7944 23.4023 56.5124 23.4063Z" fill="#4C545C"/>
<path d="M33.2286 76.717C33.2026 76.2911 33.1726 75.9501 33.1386 75.6942C33.3625 75.7942 33.5615 75.8641 33.7355 75.9041C33.9114 75.9421 34.0654 75.9611 34.1974 75.9611C34.3714 75.9611 34.5093 75.9361 34.6113 75.8861C34.7153 75.8341 34.7673 75.7582 34.7673 75.6582C34.7673 75.6242 34.7623 75.5922 34.7523 75.5622C34.7423 75.5302 34.7233 75.4952 34.6953 75.4572C34.6673 75.4172 34.6273 75.3742 34.5753 75.3282L34.0114 74.8363C33.8795 74.7244 33.7875 74.6434 33.7355 74.5934C33.6295 74.4914 33.5465 74.3964 33.4865 74.3084C33.4285 74.2204 33.3855 74.1315 33.3575 74.0415C33.3316 73.9495 33.3186 73.8525 33.3186 73.7505C33.3186 73.6286 33.3396 73.5096 33.3815 73.3936C33.4255 73.2756 33.4905 73.1656 33.5765 73.0637C33.6625 72.9617 33.7765 72.8737 33.9184 72.7997C34.0604 72.7257 34.2124 72.6757 34.3744 72.6497C34.5363 72.6217 34.7033 72.6077 34.8753 72.6077C35.2132 72.6077 35.5811 72.6467 35.9791 72.7247C35.9851 72.8627 35.9921 72.9897 36.0001 73.1057C36.0081 73.2196 36.0271 73.4206 36.057 73.7085C35.8731 73.6346 35.7051 73.5836 35.5531 73.5556C35.4012 73.5256 35.2702 73.5106 35.1602 73.5106C35.0042 73.5106 34.8743 73.5396 34.7703 73.5976C34.6683 73.6555 34.6173 73.7275 34.6173 73.8135C34.6173 73.8535 34.6253 73.8925 34.6413 73.9305C34.6573 73.9685 34.6873 74.0135 34.7313 74.0655C34.7753 74.1155 34.8333 74.1715 34.9053 74.2334C34.9772 74.2934 35.0902 74.3834 35.2442 74.5034L35.4602 74.6744C35.5241 74.7264 35.5931 74.7893 35.6671 74.8633C35.7411 74.9373 35.8051 75.0103 35.8591 75.0823C35.9131 75.1543 35.9541 75.2203 35.9821 75.2802C36.0121 75.3402 36.0341 75.4012 36.048 75.4632C36.062 75.5232 36.069 75.5882 36.069 75.6582C36.069 75.8381 36.0261 76.0101 35.9401 76.1741C35.8541 76.3361 35.7321 76.47 35.5741 76.576C35.4162 76.68 35.2422 76.753 35.0522 76.795C34.8643 76.837 34.6653 76.858 34.4553 76.858C34.1314 76.858 33.7225 76.811 33.2286 76.717ZM39.5934 75.8741C39.5674 75.9941 39.5174 76.2841 39.4434 76.744C39.2115 76.79 39.0165 76.82 38.8585 76.834C38.7006 76.85 38.5406 76.858 38.3786 76.858C38.1407 76.858 37.9217 76.841 37.7217 76.807C37.5218 76.775 37.3488 76.717 37.2028 76.633C37.0589 76.549 36.9379 76.445 36.8399 76.3211C36.7419 76.1951 36.6669 76.0461 36.6149 75.8741C36.565 75.7022 36.54 75.5252 36.54 75.3432C36.54 75.0873 36.5909 74.8373 36.6929 74.5934C36.7949 74.3474 36.9259 74.1555 37.0859 74.0175C37.2478 73.8795 37.4338 73.7815 37.6438 73.7235C37.8537 73.6655 38.0687 73.6366 38.2886 73.6366C38.5166 73.6366 38.7335 73.6635 38.9395 73.7175C39.1475 73.7695 39.3234 73.8615 39.4674 73.9935C39.6114 74.1255 39.7134 74.2744 39.7734 74.4404C39.8353 74.6064 39.8663 74.7853 39.8663 74.9773C39.8663 75.0913 39.8533 75.2183 39.8273 75.3582L37.7247 75.3612C37.7227 75.3932 37.7217 75.4222 37.7217 75.4482C37.7217 75.6642 37.7987 75.8231 37.9527 75.9251C38.1067 76.0271 38.2946 76.0781 38.5166 76.0781C38.6486 76.0781 38.7985 76.0631 38.9665 76.0331C39.1365 76.0011 39.3454 75.9481 39.5934 75.8741ZM37.7487 74.9023H38.7385C38.7405 74.8683 38.7415 74.8393 38.7415 74.8153C38.7415 74.7114 38.7226 74.6224 38.6846 74.5484C38.6486 74.4744 38.5956 74.4204 38.5256 74.3864C38.4576 74.3524 38.3806 74.3354 38.2946 74.3354C38.2346 74.3354 38.1767 74.3454 38.1207 74.3654C38.0647 74.3834 38.0137 74.4114 37.9677 74.4494C37.9237 74.4854 37.8867 74.5274 37.8567 74.5754C37.8267 74.6234 37.8047 74.6704 37.7907 74.7164C37.7767 74.7603 37.7627 74.8223 37.7487 74.9023ZM40.2563 76.78L40.3492 75.4482L40.3792 74.6834C40.3812 74.5454 40.3822 74.4044 40.3822 74.2604C40.3822 74.1145 40.3802 73.9335 40.3762 73.7175C40.6182 73.7215 40.8102 73.7235 40.9521 73.7235C41.1181 73.7235 41.3091 73.7215 41.525 73.7175L41.513 74.0565C41.591 73.9685 41.655 73.9035 41.705 73.8615C41.755 73.8175 41.812 73.7785 41.876 73.7445C41.94 73.7085 42.0069 73.6825 42.0769 73.6665C42.1469 73.6486 42.2199 73.6396 42.2959 73.6396C42.3679 73.6396 42.4479 73.6496 42.5358 73.6695C42.5378 73.8875 42.5428 74.0675 42.5508 74.2094L42.5718 74.6714C42.4619 74.6394 42.3589 74.6234 42.2629 74.6234C42.1429 74.6234 42.0389 74.6414 41.951 74.6774C41.865 74.7114 41.788 74.7643 41.72 74.8363C41.654 74.9063 41.601 74.9943 41.561 75.1003C41.521 75.2063 41.493 75.3742 41.477 75.6042C41.461 75.8341 41.453 76.0971 41.453 76.393C41.453 76.497 41.457 76.626 41.465 76.78C41.2711 76.776 41.0761 76.774 40.8801 76.774C40.6862 76.774 40.4782 76.776 40.2563 76.78ZM43.7236 76.78L43.4057 75.7962L42.6888 73.7175C42.9168 73.7215 43.1287 73.7235 43.3247 73.7235C43.5287 73.7235 43.7206 73.7215 43.9006 73.7175C43.9346 73.8555 44.0016 74.0975 44.1015 74.4434C44.2015 74.7873 44.3115 75.1973 44.4315 75.6732L44.5095 75.4242C44.5215 75.3942 44.5685 75.2662 44.6504 75.0403L45.1274 73.7175C45.3433 73.7215 45.5473 73.7235 45.7392 73.7235C45.9372 73.7235 46.1432 73.7215 46.3571 73.7175L45.9432 74.6084L45.1724 76.378L45.0074 76.78C44.7714 76.776 44.5635 76.774 44.3835 76.774C44.1875 76.774 43.9676 76.776 43.7236 76.78ZM48.3068 73.6396C48.5547 73.6396 48.7927 73.6775 49.0206 73.7535C49.2506 73.8295 49.4446 73.9395 49.6025 74.0835C49.7605 74.2254 49.8765 74.3924 49.9505 74.5844C50.0264 74.7743 50.0644 74.9793 50.0644 75.1993C50.0644 75.4132 50.0304 75.6172 49.9625 75.8111C49.8965 76.0031 49.7835 76.1841 49.6235 76.354C49.4636 76.522 49.2596 76.648 49.0116 76.732C48.7657 76.816 48.5047 76.858 48.2288 76.858C47.9748 76.858 47.7309 76.821 47.4969 76.747C47.263 76.673 47.067 76.565 46.909 76.423C46.7531 76.2811 46.6351 76.1111 46.5551 75.9131C46.4771 75.7152 46.4381 75.5072 46.4381 75.2892C46.4381 75.0713 46.4761 74.8633 46.5521 74.6654C46.6301 74.4674 46.7521 74.2894 46.918 74.1315C47.086 73.9735 47.293 73.8525 47.5389 73.7685C47.7849 73.6825 48.0408 73.6396 48.3068 73.6396ZM48.2858 74.5214C48.1578 74.5214 48.0438 74.5544 47.9438 74.6204C47.8439 74.6864 47.7679 74.7833 47.7159 74.9113C47.6659 75.0373 47.6409 75.1753 47.6409 75.3252C47.6409 75.5452 47.6959 75.7142 47.8059 75.8321C47.9158 75.9481 48.0538 76.0061 48.2198 76.0061C48.3458 76.0061 48.4587 75.9731 48.5587 75.9071C48.6587 75.8391 48.7337 75.7402 48.7837 75.6102C48.8357 75.4782 48.8617 75.3372 48.8617 75.1873C48.8617 75.0633 48.8417 74.9513 48.8017 74.8513C48.7617 74.7513 48.6957 74.6714 48.6037 74.6114C48.5137 74.5514 48.4077 74.5214 48.2858 74.5214ZM50.4814 76.78C50.5394 76.3261 50.5833 75.8251 50.6133 75.2772C50.6453 74.7274 50.6643 74.2074 50.6703 73.7175C50.9103 73.7215 51.1172 73.7235 51.2912 73.7235C51.4932 73.7235 51.6871 73.7215 51.8731 73.7175L51.8431 74.1255C51.9091 74.0515 51.9661 73.9935 52.0141 73.9515C52.0621 73.9075 52.1211 73.8655 52.191 73.8255C52.263 73.7835 52.339 73.7495 52.419 73.7235C52.499 73.6975 52.586 73.6775 52.68 73.6635C52.7759 73.6476 52.8759 73.6396 52.9799 73.6396C53.1239 73.6396 53.2638 73.6555 53.3998 73.6875C53.5378 73.7175 53.6528 73.7615 53.7448 73.8195C53.8367 73.8755 53.9137 73.9465 53.9757 74.0325C54.0377 74.1165 54.0787 74.2074 54.0987 74.3054C54.1187 74.4034 54.1287 74.5044 54.1287 74.6084C54.1287 74.6844 54.1207 74.8483 54.1047 75.1003L54.0537 76.1861C54.0437 76.4 54.0387 76.598 54.0387 76.78C53.8367 76.776 53.6478 76.774 53.4718 76.774C53.2339 76.774 53.0169 76.776 52.8209 76.78C52.8389 76.598 52.8579 76.3281 52.8779 75.9701C52.8979 75.6102 52.9079 75.3572 52.9079 75.2113C52.9079 74.9853 52.8639 74.8283 52.7759 74.7403C52.69 74.6504 52.581 74.6054 52.449 74.6054C52.333 74.6054 52.223 74.6434 52.1191 74.7194C52.0171 74.7953 51.9381 74.9063 51.8821 75.0523C51.8261 75.1963 51.7861 75.4342 51.7621 75.7662C51.7401 76.0981 51.7251 76.436 51.7171 76.78C51.5172 76.776 51.3222 76.774 51.1322 76.774C50.9323 76.774 50.7153 76.776 50.4814 76.78Z" fill="#4C545C"/>
<path d="M18.5678 31.0393C16.178 31.0393 14.232 32.9878 14.232 35.3808C14.232 37.7738 16.178 39.7223 18.5678 39.7223C20.9576 39.7223 22.9037 37.7738 22.9037 35.3808C22.9037 32.9878 20.9235 31.0393 18.5678 31.0393ZM21.7429 33.0562H21.5722C21.5039 33.0562 21.4356 33.1246 21.4015 33.1929L20.9918 34.4236L19.9676 34.868L18.7385 33.9792V32.7485L19.7627 31.9965C19.831 31.9623 19.8652 31.8597 19.831 31.7914L19.7627 31.6204C20.5821 31.8597 21.2649 32.3725 21.7429 33.0562ZM17.3388 31.5862L17.2705 31.7914C17.2363 31.8597 17.2705 31.9623 17.3388 31.9965L18.363 32.7485V33.9792L17.1339 34.868L16.1097 34.4236L15.7 33.1929C15.6659 33.1246 15.5976 33.0562 15.5293 33.0562H15.3586C15.8366 32.3725 16.5194 31.8597 17.3388 31.5862ZM14.6075 35.3808L14.7782 35.4833C14.8124 35.5175 14.8465 35.5175 14.8806 35.5175C14.9148 35.5175 14.9489 35.5175 14.9831 35.4833L16.0073 34.7313L17.0315 35.1757L17.5095 36.6115L16.8949 37.3635H15.6317C15.5634 37.3635 15.4952 37.4319 15.461 37.5003L15.3927 37.6712C14.8806 37.0559 14.6075 36.2354 14.6075 35.3808ZM17.3388 39.1412L17.4753 39.0386C17.5436 39.0044 17.5777 38.9019 17.5436 38.8335L17.1681 37.637L17.7826 36.8849H19.3189L19.9334 37.637L19.5579 38.8335C19.5237 38.9019 19.5579 39.0044 19.6262 39.0386L19.7627 39.1412C19.3872 39.2779 18.9775 39.3463 18.5337 39.3463C18.124 39.3463 17.7143 39.2437 17.3388 39.1412ZM21.7429 37.7054L21.6746 37.5345C21.6405 37.4661 21.5722 37.3977 21.5039 37.3977H20.2407L19.6262 36.6456L20.1041 35.2099L21.1284 34.7655L22.1526 35.5175C22.1867 35.5517 22.2208 35.5517 22.255 35.5517C22.2891 35.5517 22.3233 35.5517 22.3574 35.5175L22.5281 35.415C22.494 36.2354 22.2208 37.0559 21.7429 37.7054Z" fill="#010202"/>
<path d="M67.4276 30.9718C65.0377 30.9718 63.0917 32.9203 63.0917 35.3133C63.0917 37.7062 65.0377 39.6548 67.4276 39.6548C69.8174 39.6548 71.7634 37.7062 71.7634 35.3133C71.7634 32.9203 69.7833 30.9718 67.4276 30.9718ZM70.6026 32.9887H70.4319C70.3636 32.9887 70.2954 33.0571 70.2612 33.1254L69.8515 34.3561L68.8273 34.8005L67.5983 33.9117V32.681L68.6225 31.929C68.6908 31.8948 68.7249 31.7922 68.6908 31.7238L68.6225 31.5529C69.4419 31.7922 70.1247 32.305 70.6026 32.9887ZM66.1985 31.5187L66.1302 31.6897C66.0961 31.758 66.1302 31.8606 66.1985 31.8948L67.2227 32.6468V33.8775L65.9937 34.7663L64.9694 34.3219L64.5598 33.0913C64.5256 33.0229 64.4573 32.9545 64.3891 32.9545H64.2184C64.6963 32.305 65.3791 31.7922 66.1985 31.5187ZM63.4673 35.3133L63.638 35.4158C63.6721 35.45 63.7062 35.45 63.7404 35.45C63.7745 35.45 63.8087 35.45 63.8428 35.4158L64.867 34.6638L65.8912 35.1082L66.3692 36.5439L65.7547 37.296H64.4915C64.4232 37.296 64.3549 37.3644 64.3208 37.4328L64.2525 37.6037C63.7404 36.9542 63.4673 36.1679 63.4673 35.3133ZM66.1985 39.0736L66.3351 38.9711C66.4033 38.9369 66.4375 38.8344 66.4033 38.766L66.0278 37.5695L66.6423 36.8174H68.1787L68.7932 37.5695L68.4176 38.766C68.3835 38.8344 68.4176 38.9369 68.4859 38.9711L68.6225 39.0736C68.2469 39.2104 67.8372 39.2788 67.3934 39.2788C66.9837 39.2788 66.574 39.1762 66.1985 39.0736ZM70.6026 37.6379L70.5344 37.4669C70.5002 37.3986 70.4319 37.3302 70.3637 37.3302H69.1004L68.4859 36.5781L68.9639 35.1424L69.9881 34.698L71.0123 35.45C71.0465 35.4842 71.0806 35.4842 71.1147 35.4842C71.1489 35.4842 71.183 35.4842 71.2172 35.45L71.3879 35.3475C71.3879 36.1679 71.0806 36.9542 70.6026 37.6379Z" fill="#010202"/>
</svg>
