<svg width="36" height="37" viewBox="0 0 36 37" fill="none" xmlns="http://www.w3.org/2000/svg">
<g clip-path="url(#clip0_143_199)">
<path d="M22.5536 26.7628C21.1878 25.8178 19.5518 25.3619 18.0059 24.7499C16.4599 24.1379 14.905 23.2889 14.0585 21.8579C13.347 20.6609 13.23 19.2179 12.9898 17.8469C12.7497 16.4759 12.2934 15.024 11.1647 14.208C9.72684 13.17 7.6766 13.533 6.14267 14.421C4.60874 15.3089 3.37499 16.6349 1.89209 17.6069C1.5799 17.8109 1.25571 17.9969 0.925507 18.1679C0.955525 18.9719 1.09361 19.7579 1.4118 20.5199C1.46283 20.6399 1.51386 20.7599 1.56489 20.8799C2.62454 20.7839 3.69018 20.7269 4.73181 20.9279C5.96856 21.1679 7.1813 21.8309 7.79066 22.9319C8.39103 24.0179 8.52911 25.5958 9.71183 25.9678C10.7445 26.2948 11.8641 25.3769 12.8998 25.6888C13.5241 25.8778 13.9444 26.4808 14.1215 27.1078C14.2986 27.7348 14.2806 28.3948 14.3166 29.0458C14.3767 30.1948 14.6198 31.3288 15.013 32.4088C16.8742 31.7488 18.8584 31.4338 20.8336 31.5058C22.0373 31.5478 23.253 31.7278 24.4628 31.8928C24.6068 31.5988 24.7089 31.2838 24.7599 30.9478C25.0001 29.3038 23.9194 27.7078 22.5536 26.7628Z" fill="#547ABB"/>
<path d="M14.114 27.1048C13.9369 26.4778 13.5167 25.8748 12.8923 25.6858C11.8567 25.3708 10.737 26.2888 9.70438 25.9648C8.52166 25.5928 8.38358 24.0118 7.78321 22.9288C7.17384 21.8278 5.95811 21.1648 4.72436 20.9248C3.68273 20.7238 2.61708 20.7778 1.55744 20.8768C2.34692 22.7068 3.33452 24.5038 3.45459 26.4838C3.54765 28.0018 3.11839 29.4988 2.99231 31.0137C2.86924 32.5287 3.13039 34.2207 4.28609 35.2077C5.4568 36.2067 7.21587 36.1827 8.66274 35.6577C10.1066 35.1327 11.3554 34.1877 12.7002 33.4437C13.4386 33.0357 14.2131 32.6907 15.0086 32.4087C14.6153 31.3287 14.3722 30.1948 14.3122 29.0458C14.2731 28.3948 14.2912 27.7318 14.114 27.1048Z" fill="#6A94CD"/>
<path d="M24.5873 17.0641C24.3742 16.1791 24.155 15.2881 23.8909 14.4121C22.3389 13.3801 20.826 12.2611 19.3161 11.2051C15.2156 8.34314 10.2956 5.76016 5.41768 6.87015C4.36104 7.11015 3.37945 7.50914 2.45489 8.02514C2.43688 8.12414 2.41887 8.22314 2.40086 8.32214C2.04064 10.2871 1.68042 12.2521 1.3172 14.2201C1.08606 15.5941 0.86993 16.9081 0.917959 18.165C1.24816 17.997 1.57236 17.808 1.88454 17.604C3.36744 16.6321 4.60119 15.3061 6.13512 14.4181C7.66905 13.5301 9.71929 13.1671 11.1572 14.2051C12.2858 15.0211 12.7421 16.4731 12.9823 17.844C13.2224 19.215 13.3425 20.658 14.0509 21.855C14.8974 23.286 16.4554 24.135 17.9983 24.747C19.5442 25.359 21.1772 25.815 22.5461 26.76C23.9119 27.705 24.9925 29.3009 24.7464 30.9449C24.6954 31.2779 24.5933 31.5929 24.4492 31.8899C25.9741 32.0969 27.4901 32.2829 28.97 32.1419C27.8233 30.4139 27.3099 28.347 26.8207 26.328C26.0792 23.241 25.3348 20.154 24.5873 17.0641Z" fill="#4260A5"/>
<path d="M35.3616 27.6332C36.2291 25.6052 36.148 23.2592 35.4936 21.1502C35.1935 20.1842 34.7792 19.2332 34.38 18.2822C33.7376 18.2612 33.0952 18.2162 32.4558 18.1262C29.3309 17.6793 26.5482 16.1793 23.8916 14.4153C24.1558 15.2883 24.3749 16.1823 24.588 17.0673C25.3355 20.1542 26.0799 23.2442 26.8274 26.3312C27.3167 28.3501 27.827 30.4201 28.9767 32.1451C29.6281 32.0851 30.2705 31.9621 30.9039 31.7491C32.8791 31.0831 34.5421 29.5471 35.3616 27.6332Z" fill="#4260A5"/>
<path d="M34.332 9.2702C34.0798 9.2942 33.8247 9.3062 33.5725 9.3002C32.0836 9.2762 30.6338 8.8172 29.2439 8.28021C25.3145 6.76822 21.6673 4.61124 17.852 2.82926C16.8404 2.35526 15.8108 1.91127 14.7631 1.50927C13.1241 1.17927 11.4701 0.987276 9.81314 1.15227C7.17154 1.41327 4.48492 2.75126 3.3022 5.12724C2.85193 6.03323 2.6418 7.03222 2.45569 8.02821C3.38025 7.51522 4.36184 7.11622 5.41848 6.87322C10.2964 5.76023 15.2164 8.34321 19.3169 11.2082C23.4174 14.0702 27.5059 17.4181 32.4559 18.1261C33.0952 18.2161 33.7346 18.2611 34.38 18.2821C33.6386 16.5121 32.9542 14.7421 33.2033 12.8762C33.3624 11.6612 33.9117 10.4552 34.332 9.2702Z" fill="#395499"/>
<path d="M29.2474 8.28346C30.6373 8.82045 32.0841 9.27645 33.576 9.30345C33.8282 9.30645 34.0833 9.29745 34.3355 9.27345C34.8008 7.96246 35.107 6.68147 34.5576 5.44248C33.8852 3.9275 32.1142 3.18351 30.4571 3.08751C28.8001 2.98851 27.1551 3.3905 25.4981 3.4655C22.8445 3.5855 20.236 2.87451 17.6664 2.20251C16.7088 1.95352 15.7392 1.70452 14.7636 1.50952C15.8113 1.91152 16.8409 2.35851 17.8525 2.82951C21.6678 4.61149 25.315 6.76847 29.2474 8.28346Z" fill="#2F4B8A"/>
<path d="M25.4529 1.08923C25.4529 1.69223 24.9636 2.17822 24.3632 2.17822C23.7599 2.17822 23.2736 1.68923 23.2736 1.08923C23.2736 0.489239 23.7599 0.000244141 24.3632 0.000244141C24.9666 0.000244141 25.4529 0.489239 25.4529 1.08923Z" fill="#395499"/>
<path d="M20.2939 31.9588V20.9249H23.9982L24.5535 16.6259H20.2939V13.881C20.2939 12.636 20.6391 11.787 22.4252 11.787H24.7036V7.93802C24.3104 7.88702 22.9565 7.77002 21.3836 7.77002C18.0996 7.77002 15.8482 9.774 15.8482 13.455V16.6259H12.135V20.9249H15.8512V31.9588H20.2939Z" fill="white"/>
</g>
<defs>
<clipPath id="clip0_143_199">
<rect width="35.0852" height="36.0147" fill="white" transform="translate(0.914749)"/>
</clipPath>
</defs>
</svg>
