<svg width="36" height="37" viewBox="0 0 36 37" fill="none" xmlns="http://www.w3.org/2000/svg">
<g clip-path="url(#clip0_143_170)">
<path d="M21.6382 27.4746C20.2724 26.5295 18.6364 26.0734 17.0905 25.4613C15.5445 24.8493 13.9896 24.0002 13.1431 22.569C12.4346 21.3719 12.3146 19.9288 12.0744 18.5576C11.8313 17.1865 11.378 15.7343 10.2493 14.9182C8.81144 13.8801 6.7612 14.2432 5.22727 15.1313C3.69334 16.0194 2.45959 17.3455 0.976694 18.3176C0.664505 18.5216 0.340309 18.7076 0.0101089 18.8787C0.0401271 19.6827 0.178211 20.4688 0.496404 21.2309C0.547434 21.3509 0.598465 21.4709 0.649496 21.5909C1.70914 21.4949 2.77478 21.4379 3.81641 21.6389C5.05316 21.879 6.2659 22.542 6.87527 23.6432C7.47563 24.7293 7.61371 26.3074 8.79643 26.6795C9.82906 27.0065 10.9487 26.0884 11.9844 26.4004C12.6087 26.5895 13.029 27.1925 13.2061 27.8196C13.3832 28.4467 13.3652 29.1067 13.4012 29.7578C13.4613 30.9069 13.7044 32.041 14.0976 33.1212C15.9588 32.4611 17.943 32.1461 19.9182 32.2181C21.1219 32.2601 22.3376 32.4401 23.5474 32.6051C23.6915 32.3111 23.7935 31.996 23.8445 31.66C24.0847 30.0188 23.004 28.4197 21.6382 27.4746Z" fill="#F0825A"/>
<path d="M13.1978 27.8196C13.0206 27.1926 12.6004 26.5895 11.976 26.4005C10.9404 26.0854 9.82071 27.0035 8.78809 26.6795C7.60537 26.3075 7.46729 24.7263 6.86692 23.6432C6.25755 22.5421 5.04182 21.879 3.80807 21.639C2.76644 21.4379 1.70079 21.492 0.641151 21.591C1.43063 23.4212 2.41823 25.2183 2.5383 27.1986C2.63136 28.7167 2.2021 30.2139 2.07602 31.729C1.95295 33.2442 2.2141 34.9364 3.3698 35.9235C4.54051 36.9226 6.29958 36.8986 7.74645 36.3735C9.19033 35.8485 10.4391 34.9034 11.7839 34.1593C12.5223 33.7512 13.2968 33.4062 14.0923 33.1242C13.6991 32.0441 13.4559 30.9099 13.3959 29.7608C13.3569 29.1098 13.3749 28.4467 13.1978 27.8196Z" fill="#F5AC4B"/>
<path d="M23.6701 17.7772C23.457 16.8921 23.2379 16.001 22.9737 15.1249C21.4218 14.0928 19.9089 12.9707 18.3989 11.9176C14.2985 9.05525 9.37847 6.47198 4.50052 7.5821C3.44388 7.82212 2.46228 8.22116 1.53772 8.73722C1.51971 8.83623 1.5017 8.93524 1.48369 9.03425C1.12347 10.9995 0.763253 12.9647 0.400033 14.9329C0.168893 16.307 -0.0472379 17.6212 0.000791241 18.8783C0.330991 18.7103 0.655188 18.5212 0.967377 18.3172C2.45027 17.3451 3.68402 16.019 5.21795 15.1309C6.75188 14.2428 8.80212 13.8798 10.24 14.9179C11.3687 15.734 11.825 17.1861 12.0651 18.5573C12.3082 19.9284 12.4253 21.3715 13.1337 22.5687C13.9803 23.9998 15.5382 24.8489 17.0811 25.461C18.6271 26.073 20.2601 26.5291 21.6289 27.4742C22.9947 28.4193 24.0754 30.0155 23.8292 31.6596C23.7782 31.9927 23.6761 32.3077 23.532 32.6047C25.057 32.8118 26.5729 32.9978 28.0528 32.8568C26.9061 31.1286 26.3928 29.0614 25.9035 27.0421C25.162 23.9548 24.4176 20.8645 23.6701 17.7772Z" fill="#E94772"/>
<path d="M34.4435 28.3442C35.3111 26.3159 35.23 23.9697 34.5756 21.8605C34.2754 20.8944 33.8612 19.9433 33.4619 18.9922C32.8196 18.9712 32.1772 18.9262 31.5378 18.8361C28.4129 18.3891 25.6302 16.8889 22.9736 15.1248C23.2378 15.9978 23.4569 16.8919 23.67 17.777C24.4175 20.8644 25.1619 23.9547 25.9094 27.042C26.3987 29.0612 26.909 31.1314 28.0587 32.8566C28.7101 32.7966 29.3525 32.6736 29.9858 32.4606C31.961 31.7975 33.624 30.2614 34.4435 28.3442Z" fill="#CD318A"/>
<path d="M33.4152 9.98263C33.163 10.0066 32.9079 10.0186 32.6557 10.0126C31.1668 9.98863 29.7169 9.52958 28.3271 8.99253C24.3977 7.47737 20.7475 5.32314 16.9322 3.53795C15.9206 3.0639 14.891 2.61986 13.8433 2.21782C12.2043 1.88778 10.5503 1.69576 8.89332 1.86078C6.25172 2.12181 3.56509 3.45995 2.38238 5.8362C1.93211 6.74229 1.72198 7.7414 1.53587 8.7375C2.46043 8.22445 3.44202 7.8254 4.49866 7.58238C9.37662 6.46926 14.2966 9.05253 18.3971 11.9178C22.4976 14.7801 26.586 18.1285 31.536 18.8366C32.1754 18.9266 32.8148 18.9716 33.4602 18.9926C32.7158 17.2224 32.0343 15.4522 32.2835 13.586C32.4456 12.3739 32.9949 11.1678 33.4152 9.98263Z" fill="#A13B8E"/>
<path d="M28.3319 8.99273C29.7218 9.52979 31.1687 9.98584 32.6606 10.0128C32.9127 10.0158 33.1679 10.0068 33.42 9.98283C33.8853 8.6717 34.1915 7.39056 33.6422 6.15143C32.9698 4.63627 31.1987 3.89219 29.5417 3.79618C27.8847 3.70017 26.2427 4.09922 24.5827 4.17422C21.9291 4.29424 19.3205 3.58316 16.7509 2.91109C15.7933 2.66206 14.8238 2.41304 13.8482 2.21802C14.8958 2.62006 15.9254 3.06711 16.937 3.53816C20.7523 5.32334 24.3996 7.47757 28.3319 8.99273Z" fill="#833D90"/>
<path d="M20.527 3.60038C22.8444 3.60038 22.8474 0 20.527 0C18.2096 0 18.2066 3.60038 20.527 3.60038Z" fill="#A13B8E"/>
<path d="M22.0834 29.8802H12.9249C8.86041 29.8802 5.55241 26.5739 5.55241 22.5114V14.4466C5.55241 10.3842 8.86041 7.08081 12.9249 7.08081H22.0834C26.1479 7.08081 29.4559 10.3842 29.4559 14.4466V22.5144C29.4559 26.5769 26.1479 29.8802 22.0834 29.8802ZM12.9249 8.71598C9.76396 8.71598 7.1914 11.2873 7.1914 14.4466V22.5144C7.1914 25.6738 9.76396 28.245 12.9249 28.245H22.0834C25.2443 28.245 27.8169 25.6738 27.8169 22.5144V14.4466C27.8169 11.2873 25.2443 8.71598 22.0834 8.71598H12.9249Z" fill="white"/>
<path d="M17.5039 25.0375C13.8868 25.0375 10.942 22.0942 10.942 18.4789C10.942 14.8635 13.8868 11.9202 17.5039 11.9202C21.1211 11.9202 24.0659 14.8635 24.0659 18.4789C24.0629 22.0972 21.1211 25.0375 17.5039 25.0375ZM17.5039 13.5583C14.7903 13.5583 12.581 15.7666 12.581 18.4789C12.581 21.1911 14.7903 23.3994 17.5039 23.3994C20.2176 23.3994 22.4269 21.1911 22.4269 18.4789C22.4269 15.7666 20.2176 13.5583 17.5039 13.5583Z" fill="white"/>
<path d="M25.3281 12.1243C25.3281 12.8744 24.7187 13.4835 23.9682 13.4835C23.2148 13.4835 22.6054 12.8744 22.6054 12.1243C22.6054 11.3713 23.2148 10.7622 23.9682 10.7622C24.7157 10.7622 25.3281 11.3713 25.3281 12.1243Z" fill="white"/>
</g>
<defs>
<clipPath id="clip0_143_170">
<rect width="35.0852" height="36.7299" fill="white"/>
</clipPath>
</defs>
</svg>
