<?xml version="1.0" encoding="utf-8"?>
<!-- Generator: Adobe Illustrator 16.0.0, SVG Export Plug-In . SVG Version: 6.00 Build 0)  -->
<!DOCTYPE svg PUBLIC "-//W3C//DTD SVG 1.1//EN" "http://www.w3.org/Graphics/SVG/1.1/DTD/svg11.dtd">
<svg version="1.1" id="Calque_1" xmlns="http://www.w3.org/2000/svg" xmlns:xlink="http://www.w3.org/1999/xlink" x="0px" y="0px"
	 width="257.619px" height="275.615px" viewBox="0 0 257.619 275.615" enable-background="new 0 0 257.619 275.615"
	 xml:space="preserve">
<g>
	<defs>
		<rect id="SVGID_1_" width="257.619" height="275.615"/>
	</defs>
	<clipPath id="SVGID_2_">
		<use xlink:href="#SVGID_1_"  overflow="visible"/>
	</clipPath>
</g>
<g>
	<defs>
		<rect id="SVGID_3_" width="257.619" height="275.615"/>
	</defs>
	<clipPath id="SVGID_4_">
		<use xlink:href="#SVGID_3_"  overflow="visible"/>
	</clipPath>
	<path clip-path="url(#SVGID_4_)" fill="#FFFFFF" d="M32.523,68.446c-2.203,16.937-7.576,74.76,28.898,130.375
		c22.4,34.155,50.925,52.75,67.097,61.615c15.488-6.907,48.657-24.31,73.497-61.496c37.905-56.748,28.031-117.078,25.498-130.494
		c-9.402-7.774-45.226-35.507-98.592-35.125C76.923,33.694,42.112,60.517,32.523,68.446"/>
	<path clip-path="url(#SVGID_4_)" fill="none" stroke="#000000" stroke-width="3" stroke-miterlimit="10" d="M32.523,68.446
		c-2.203,16.937-7.576,74.76,28.898,130.375c22.4,34.155,50.925,52.75,67.097,61.615c15.488-6.907,48.657-24.31,73.497-61.496
		c37.905-56.748,28.031-117.078,25.498-130.494c-9.402-7.774-45.226-35.507-98.592-35.125
		C76.923,33.694,42.112,60.517,32.523,68.446z"/>
	<path clip-path="url(#SVGID_4_)" fill="#FFFFFF" d="M38.011,71.867c-2.072,15.934-7.127,70.333,27.187,122.656
		c21.074,32.134,47.91,49.628,63.125,57.968c14.571-6.499,45.776-22.87,69.145-57.855c35.661-53.389,26.372-110.146,23.989-122.768
		c-8.846-7.313-42.548-33.405-92.755-33.045C79.782,39.171,47.032,64.408,38.011,71.867"/>
	<path clip-path="url(#SVGID_4_)" fill="none" stroke="#000000" stroke-width="3" stroke-miterlimit="10" d="M38.011,71.867
		c-2.072,15.934-7.127,70.333,27.187,122.656c21.074,32.134,47.91,49.628,63.125,57.968c14.571-6.499,45.776-22.87,69.145-57.855
		c35.661-53.389,26.372-110.146,23.989-122.768c-8.846-7.313-42.548-33.405-92.755-33.045
		C79.782,39.171,47.032,64.408,38.011,71.867z"/>
</g>
<g>
	<path d="M175.404,78.019c-3.355,4.519-6.035,9.23-8.035,14.135c-3.938,9.681-6.551,15.62-7.842,17.813l-0.484,0.581
		c-0.258-0.709-0.451-1.258-0.58-1.646c-1.809-5.809-3.291-9.842-4.453-12.102c-1.162-2.259-2.904-4.42-5.229-6.487
		c-5.873-5.228-12.553-7.842-20.04-7.842c-6.907,0-12.65,1.921-17.232,5.761c-4.583,3.84-6.874,8.665-6.874,14.473
		c0,10.843,8.164,18.234,24.494,22.17l16.361,3.969c23.299,5.615,34.949,17.91,34.949,36.885c0,10.586-3.986,19.476-11.957,26.672
		c-7.971,7.197-17.83,10.795-29.576,10.795c-7.357,0-15.586-1.129-24.687-3.389l-11.327-2.808
		c-4.583-1.097-8.359-1.646-11.327-1.646c-3.938,0-8.004,1.258-12.198,3.775l-0.774-1.355c8.002-12.068,13.617-23.557,16.845-34.465
		l1.743,0.483c1.355,10.134,5.421,18.008,12.198,23.623c6.777,5.614,15.65,8.422,26.623,8.422c8.648,0,15.521-1.999,20.621-6.002
		c5.098-4.001,7.648-9.391,7.648-16.168c0-7.809-3.551-14.263-10.648-19.362c-5.1-3.613-15.557-6.971-31.368-10.068
		c-12.198-2.387-21.042-6.356-26.526-11.908c-5.487-5.55-8.229-13.263-8.229-23.138c0-10.197,3.662-18.475,10.988-24.833
		c7.325-6.356,16.861-9.536,28.608-9.536c7.551,0,16.361,1.355,26.43,4.066c4.711,1.292,8.195,1.937,10.455,1.937
		c3.162,0,6.615-1.097,10.359-3.292L175.404,78.019z M175.404,139.785c8.777,6.648,13.168,15.748,13.168,27.301
		c0,12.328-4.777,22.768-14.328,31.318c-9.553,8.554-21.172,12.828-34.854,12.828c-6.971,0-13.263-0.711-18.878-2.13l-15.49-3.775
		c-3.615-0.903-7.488-1.355-11.618-1.355c-3.679,0-7.067,0.742-10.165,2.227l-1.162-2.808c3.355-1.549,6.777-2.323,10.262-2.323
		c3.873,0,8.292,0.581,13.263,1.742l14.909,3.582c5.938,1.421,12.199,2.13,18.781,2.13c12.908,0,23.896-4.114,32.965-12.344
		c9.068-8.229,13.604-18.184,13.604-29.866c0-9.875-3.486-18.523-10.457-25.945V139.785z M94.373,136.3l3.292,1.839
		c2.13,3.809,8.358,6.97,18.685,9.488l15.586,3.872c10.586,2.647,17.635,4.923,21.154,6.825c3.518,1.904,6.018,4.792,7.502,8.665
		l-0.678,0.387c-2.904-3.354-6.051-5.809-9.438-7.357c-3.389-1.549-9.893-3.452-19.508-5.712
		c-13.942-3.227-23.301-6.018-28.076-8.374C98.115,143.577,95.276,140.366,94.373,136.3z M106.475,167.667
		c2.387,11.617,8.776,19.847,19.169,24.687v0.775c-12.005-3.485-19.266-11.812-21.783-24.978L106.475,167.667z M153.139,101.35
		c-7.102-7.551-14.717-11.327-22.848-11.327c-4.906,0-8.973,1.42-12.199,4.26c-3.228,2.841-4.84,6.455-4.84,10.843
		c0,4.777,3.258,9.681,9.778,14.715l0.775,0.484l-0.484,0.774c-8.52-3.808-12.779-9.326-12.779-16.555
		c0-5.034,1.806-9.132,5.421-12.295c3.614-3.162,8.326-4.744,14.136-4.744c5.549,0,10.406,1.178,14.57,3.534
		c4.162,2.356,7.211,5.663,9.148,9.923L153.139,101.35z M181.408,82.084l-0.873,1.452c-2.646,4.454-4.904,8.713-6.775,12.779
		c-4.52,9.488-7.068,14.781-7.648,15.877l-0.484,0.678l-2.324-0.968l0.389-0.871c1.871-4.26,4.582-9.81,8.131-16.652l6.584-12.779
		l0.484-0.774L181.408,82.084z"/>
</g>
<g>
	<path d="M74.007,69.695l0.811-1.406l5.051-9.512l0.538-1.064c0.156-0.313,0.375-0.762,0.655-1.348
		c1.146,0.013,1.982,0.02,2.509,0.02c0.918,0,1.767-0.006,2.548-0.02l1.425,4.072l2.899,7.832l0.566,1.426
		c-1.127-0.013-1.812-0.02-2.053-0.02c-0.548,0-1.353,0.006-2.415,0.02c-0.286-1.074-0.699-2.337-1.238-3.789h-4.916
		c-0.566,1.146-1.151,2.409-1.756,3.789c-1.212-0.013-1.955-0.02-2.229-0.02C75.907,69.675,75.109,69.682,74.007,69.695z
		 M81.568,63.064h3.033c-0.754-2.294-1.167-3.558-1.238-3.792c-0.429,0.956-0.793,1.739-1.093,2.35L81.568,63.064z"/>
	<path d="M103.578,66.443c-0.078,0.383-0.172,0.917-0.283,1.602s-0.186,1.215-0.225,1.592c-1.393,0.208-2.637,0.313-3.73,0.313
		c-1.055,0-2.036-0.132-2.944-0.396s-1.742-0.697-2.5-1.299s-1.3-1.31-1.626-2.124s-0.488-1.725-0.488-2.734
		c0-1.178,0.22-2.238,0.659-3.179s1.071-1.725,1.895-2.354s1.727-1.078,2.71-1.348s1.999-0.405,3.047-0.405
		c0.963,0,2.155,0.124,3.574,0.371l0.02,0.82c0.013,0.358,0.033,0.752,0.059,1.182l0.068,1.113
		c-0.762-0.182-1.378-0.306-1.851-0.371s-0.91-0.098-1.313-0.098c-0.879,0-1.67,0.176-2.373,0.527s-1.256,0.863-1.66,1.533
		s-0.605,1.413-0.605,2.227c0,0.742,0.169,1.378,0.508,1.909s0.796,0.941,1.372,1.23s1.288,0.435,2.134,0.435
		c0.462,0,0.965-0.038,1.509-0.112S102.757,66.658,103.578,66.443z"/>
	<path d="M103.695,69.695l0.811-1.406l5.051-9.512l0.538-1.064c0.156-0.313,0.375-0.762,0.655-1.348
		c1.146,0.013,1.982,0.02,2.509,0.02c0.918,0,1.767-0.006,2.548-0.02l1.425,4.072l2.899,7.832l0.566,1.426
		c-1.127-0.013-1.812-0.02-2.053-0.02c-0.548,0-1.353,0.006-2.415,0.02c-0.286-1.074-0.699-2.337-1.238-3.789h-4.916
		c-0.566,1.146-1.151,2.409-1.756,3.789c-1.212-0.013-1.955-0.02-2.229-0.02C105.595,69.675,104.796,69.682,103.695,69.695z
		 M111.256,63.064h3.033c-0.754-2.294-1.167-3.558-1.238-3.792c-0.429,0.956-0.793,1.739-1.093,2.35L111.256,63.064z"/>
	<path d="M121.742,69.695c0.144-1.484,0.242-2.672,0.295-3.564c0.079-1.328,0.157-3.047,0.236-5.156
		c0.059-1.615,0.088-2.77,0.088-3.467v-1.143c0.761,0.02,1.418,0.029,1.972,0.029c0.534,0,1.233-0.015,2.099-0.044
		s1.679-0.044,2.441-0.044c0.872,0,1.637,0.052,2.293,0.156c0.658,0.104,1.271,0.319,1.842,0.645
		c0.568,0.326,1.045,0.752,1.43,1.279c0.383,0.527,0.676,1.144,0.879,1.851c0.201,0.707,0.303,1.434,0.303,2.183
		c0,0.736-0.078,1.444-0.234,2.124s-0.375,1.294-0.654,1.841c-0.281,0.547-0.607,1.017-0.982,1.411
		c-0.373,0.394-0.803,0.731-1.283,1.011c-0.359,0.208-0.721,0.371-1.084,0.488c-0.365,0.117-0.863,0.211-1.494,0.283
		c-0.703,0.078-1.501,0.117-2.393,0.117l-3.945-0.029C123.177,69.666,122.575,69.675,121.742,69.695z M125.964,66.755
		c0.357,0.033,0.732,0.049,1.122,0.049c0.664,0,1.256-0.059,1.776-0.176s0.978-0.368,1.372-0.752
		c0.393-0.384,0.684-0.877,0.873-1.479c0.188-0.602,0.283-1.219,0.283-1.851c0-0.775-0.141-1.427-0.42-1.958
		c-0.281-0.531-0.652-0.9-1.119-1.108c-0.465-0.208-1.098-0.313-1.899-0.313c-0.469,0-1.022,0.02-1.66,0.059L125.964,66.755z"/>
	<path d="M137.182,69.695c0.163-1.68,0.282-3.086,0.357-4.219s0.15-2.638,0.226-4.517c0.074-1.878,0.112-3.124,0.112-3.735
		l-0.01-0.859c1.536,0.013,3.395,0.02,5.575,0.02c2.012,0,3.785-0.006,5.321-0.02l-0.02,0.321c-0.007,0.078-0.022,0.36-0.049,0.847
		l-0.059,1.061c-0.013,0.227-0.02,0.458-0.02,0.691c-1.257-0.052-2.312-0.078-3.164-0.078c-0.938,0-1.57,0.001-1.899,0.005
		s-0.842,0.018-1.538,0.044l-0.118,2.246c0.768,0.02,1.663,0.029,2.686,0.029c0.365,0,1.335-0.023,2.911-0.068
		c-0.065,0.833-0.127,1.826-0.186,2.979c-1.126-0.013-1.991-0.02-2.596-0.02c-0.898,0-1.903,0.023-3.017,0.068l-0.115,2.373h1.122
		c0.331,0,1.018-0.01,2.059-0.029l2.021-0.049c0.3-0.006,0.8-0.033,1.503-0.078c-0.078,0.963-0.144,1.959-0.195,2.988
		c-1.589-0.013-3.33-0.02-5.225-0.02l-4.297,0.01L137.182,69.695z"/>
	<path d="M150.15,69.695l0.242-1.973l0.601-6.846l0.3-4.512c1.202,0.013,2.146,0.02,2.832,0.02c0.568,0,1.438-0.006,2.607-0.02
		c0.084,0.56,0.156,0.985,0.214,1.274c0.059,0.29,0.203,0.856,0.434,1.699s0.416,1.572,0.556,2.188s0.349,1.668,0.628,3.159
		c0.287-1.022,0.548-1.901,0.782-2.637c0.235-0.736,0.528-1.572,0.881-2.51s0.575-1.551,0.67-1.841s0.224-0.734,0.387-1.333
		c0.977,0.013,1.934,0.02,2.871,0.02c0.638,0,1.523-0.006,2.656-0.02c-0.124,2.194-0.205,4.079-0.244,5.654
		c-0.085,3.086-0.127,5.208-0.127,6.367c0,0.241,0.007,0.677,0.02,1.309c-0.859-0.013-1.462-0.02-1.807-0.02
		c-0.501,0-1.116,0.006-1.846,0.02c0.053-0.586,0.119-1.981,0.198-4.185s0.119-3.612,0.119-4.224c0-0.267-0.007-0.638-0.02-1.113
		l-1.281,3.975l-1.839,5.547c-0.847-0.013-1.429-0.02-1.748-0.02c-0.403,0-1.022,0.006-1.855,0.02l-1.204-5.371l-0.704-2.861
		c-0.026-0.111-0.056-0.248-0.089-0.41c-0.032-0.163-0.085-0.449-0.156-0.859l-0.246,2.705l-0.325,5.547l-0.029,1.25
		c-0.898-0.013-1.472-0.02-1.719-0.02C151.569,69.675,150.983,69.682,150.15,69.695z"/>
	<path d="M168.832,69.695c0.375-5.228,0.563-9.251,0.563-12.07l-0.01-1.26c1.141,0.013,1.903,0.02,2.287,0.02
		c0.176,0,0.877-0.006,2.102-0.02c-0.118,1.465-0.213,2.852-0.284,4.16c-0.092,1.823-0.157,3.527-0.196,5.112
		s-0.059,2.938-0.059,4.058l-2.001-0.02C170.843,69.675,170.042,69.682,168.832,69.695z"/>
	<path d="M175.619,69.695c0.163-1.68,0.282-3.086,0.357-4.219s0.15-2.638,0.226-4.517c0.074-1.878,0.112-3.124,0.112-3.735
		l-0.01-0.859c1.536,0.013,3.395,0.02,5.575,0.02c2.012,0,3.785-0.006,5.321-0.02l-0.02,0.321c-0.007,0.078-0.022,0.36-0.049,0.847
		l-0.059,1.061c-0.013,0.227-0.02,0.458-0.02,0.691c-1.257-0.052-2.312-0.078-3.164-0.078c-0.938,0-1.57,0.001-1.899,0.005
		s-0.842,0.018-1.538,0.044l-0.118,2.246c0.768,0.02,1.663,0.029,2.686,0.029c0.365,0,1.335-0.023,2.911-0.068
		c-0.065,0.833-0.127,1.826-0.186,2.979c-1.126-0.013-1.991-0.02-2.596-0.02c-0.898,0-1.903,0.023-3.017,0.068l-0.115,2.373h1.122
		c0.331,0,1.018-0.01,2.059-0.029l2.021-0.049c0.3-0.006,0.8-0.033,1.503-0.078c-0.078,0.963-0.144,1.959-0.195,2.988
		c-1.589-0.013-3.33-0.02-5.225-0.02l-4.297,0.01L175.619,69.695z"/>
</g>
<g>
	<path d="M96.638,225.99c-0.084-1.387-0.182-2.497-0.293-3.33c0.73,0.325,1.381,0.552,1.952,0.679s1.071,0.19,1.502,0.19
		c0.567,0,1.019-0.083,1.355-0.249s0.504-0.412,0.504-0.737c0-0.11-0.016-0.217-0.049-0.317s-0.095-0.215-0.186-0.342
		s-0.222-0.266-0.391-0.415l-1.84-1.602c-0.43-0.364-0.73-0.628-0.9-0.791c-0.346-0.332-0.615-0.642-0.808-0.928
		s-0.333-0.578-0.421-0.874c-0.088-0.296-0.132-0.61-0.132-0.942c0-0.397,0.07-0.786,0.21-1.167s0.35-0.737,0.63-1.069
		s0.651-0.618,1.113-0.859s0.957-0.405,1.484-0.493s1.071-0.132,1.631-0.132c1.1,0,2.298,0.127,3.594,0.381
		c0.02,0.449,0.042,0.861,0.068,1.235s0.088,1.03,0.186,1.968c-0.599-0.241-1.146-0.408-1.641-0.503s-0.921-0.142-1.279-0.142
		c-0.508,0-0.929,0.095-1.265,0.283s-0.503,0.423-0.503,0.703c0,0.13,0.026,0.257,0.078,0.381s0.15,0.269,0.293,0.435
		s0.332,0.349,0.566,0.547s0.602,0.493,1.104,0.884l0.703,0.557c0.208,0.169,0.433,0.374,0.674,0.615s0.449,0.479,0.625,0.713
		s0.311,0.449,0.405,0.645s0.165,0.393,0.21,0.591s0.068,0.412,0.068,0.64c0,0.586-0.14,1.145-0.42,1.675s-0.677,0.967-1.191,1.309
		s-1.079,0.581-1.694,0.718s-1.265,0.205-1.948,0.205C99.578,226.449,98.246,226.296,96.638,225.99z"/>
	<path d="M117.361,223.246c-0.084,0.391-0.248,1.335-0.488,2.832c-0.755,0.149-1.39,0.249-1.904,0.298s-1.035,0.073-1.563,0.073
		c-0.775,0-1.488-0.054-2.139-0.161s-1.212-0.298-1.685-0.57c-0.472-0.273-0.868-0.613-1.187-1.02
		c-0.319-0.407-0.562-0.89-0.728-1.449s-0.249-1.135-0.249-1.727c0-0.833,0.166-1.647,0.498-2.444s0.76-1.42,1.284-1.868
		c0.524-0.449,1.128-0.768,1.812-0.956s1.383-0.283,2.1-0.283c0.742,0,1.45,0.086,2.124,0.259s1.245,0.474,1.714,0.903
		s0.802,0.915,1.001,1.455s0.298,1.123,0.298,1.748c0,0.371-0.042,0.784-0.127,1.24l-6.846,0.01c-0.006,0.104-0.01,0.197-0.01,0.282
		c0,0.7,0.25,1.216,0.752,1.546c0.501,0.331,1.113,0.496,1.836,0.496c0.43,0,0.919-0.051,1.47-0.151
		S116.554,223.487,117.361,223.246z M111.355,220.092h3.223c0.006-0.11,0.01-0.205,0.01-0.283c0-0.339-0.06-0.628-0.181-0.869
		s-0.293-0.417-0.518-0.527s-0.477-0.166-0.757-0.166c-0.195,0-0.384,0.031-0.566,0.093s-0.347,0.153-0.493,0.273
		s-0.269,0.259-0.366,0.415s-0.169,0.308-0.215,0.454S111.4,219.831,111.355,220.092z"/>
	<path d="M119.519,226.195l0.302-4.336l0.098-2.49c0.006-0.449,0.01-0.908,0.01-1.377c0-0.476-0.007-1.064-0.02-1.768
		c0.788,0.013,1.413,0.02,1.875,0.02c0.541,0,1.163-0.007,1.866-0.02l-0.041,1.104c0.254-0.286,0.462-0.5,0.625-0.64
		s0.349-0.267,0.557-0.381s0.427-0.198,0.654-0.254c0.228-0.056,0.466-0.083,0.713-0.083c0.234,0,0.495,0.032,0.782,0.098
		c0.006,0.71,0.023,1.296,0.049,1.758l0.068,1.504c-0.358-0.104-0.693-0.156-1.005-0.156c-0.391,0-0.727,0.057-1.01,0.171
		c-0.283,0.114-0.533,0.286-0.751,0.518c-0.218,0.231-0.392,0.52-0.522,0.864c-0.13,0.345-0.222,0.892-0.273,1.641
		c-0.052,0.749-0.078,1.604-0.078,2.568c0,0.339,0.013,0.759,0.039,1.26c-0.632-0.013-1.267-0.02-1.906-0.02
		C120.92,226.176,120.242,226.183,119.519,226.195z"/>
	<path d="M130.811,226.195l-1.035-3.203l-2.336-6.768c0.743,0.013,1.434,0.02,2.073,0.02c0.664,0,1.289-0.007,1.875-0.02
		c0.111,0.449,0.33,1.235,0.656,2.358s0.684,2.459,1.074,4.009l0.254-0.811c0.039-0.098,0.191-0.515,0.459-1.25l1.551-4.307
		c0.703,0.013,1.367,0.02,1.992,0.02c0.643,0,1.313-0.007,2.01-0.02l-1.348,2.9l-2.508,5.762l-0.537,1.309
		c-0.768-0.013-1.445-0.02-2.031-0.02C132.322,226.176,131.605,226.183,130.811,226.195z"/>
	<path d="M145.721,215.971c0.808,0,1.584,0.124,2.329,0.371s1.375,0.604,1.89,1.069s0.894,1.009,1.138,1.631
		s0.366,1.291,0.366,2.007c0,0.696-0.109,1.359-0.327,1.987s-0.588,1.218-1.108,1.768s-1.184,0.962-1.987,1.235
		s-1.655,0.41-2.554,0.41c-0.827,0-1.621-0.12-2.383-0.361s-1.398-0.593-1.909-1.055s-0.896-1.016-1.152-1.66
		s-0.386-1.321-0.386-2.031s0.125-1.387,0.376-2.031s0.647-1.224,1.191-1.738s1.216-0.91,2.017-1.187
		S144.854,215.971,145.721,215.971z M145.652,218.842c-0.417,0-0.788,0.107-1.113,0.322s-0.571,0.529-0.737,0.942
		s-0.249,0.864-0.249,1.353c0,0.716,0.179,1.265,0.537,1.646s0.808,0.571,1.348,0.571c0.41,0,0.778-0.109,1.104-0.327
		s0.571-0.54,0.737-0.967s0.249-0.884,0.249-1.372c0-0.403-0.065-0.769-0.195-1.094s-0.344-0.586-0.64-0.781
		S146.05,218.842,145.652,218.842z"/>
	<path d="M152.791,226.195c0.188-1.478,0.331-3.11,0.431-4.897c0.101-1.787,0.16-3.479,0.18-5.073
		c0.782,0.013,1.457,0.02,2.024,0.02c0.658,0,1.29-0.007,1.896-0.02l-0.098,1.328c0.215-0.241,0.4-0.432,0.557-0.571
		s0.351-0.276,0.581-0.41c0.231-0.134,0.478-0.242,0.737-0.327c0.261-0.085,0.545-0.151,0.854-0.2s0.633-0.073,0.972-0.073
		c0.469,0,0.926,0.051,1.372,0.151s0.818,0.244,1.118,0.43s0.55,0.417,0.752,0.693s0.335,0.574,0.4,0.894s0.098,0.647,0.098,0.986
		c0,0.247-0.026,0.781-0.079,1.602l-0.168,3.535c-0.033,0.696-0.05,1.341-0.05,1.934c-0.657-0.013-1.271-0.02-1.844-0.02
		c-0.774,0-1.479,0.007-2.117,0.02c0.059-0.593,0.121-1.473,0.188-2.642c0.065-1.169,0.098-1.99,0.098-2.466
		c0-0.735-0.142-1.248-0.425-1.538s-0.641-0.435-1.07-0.435c-0.378,0-0.735,0.124-1.07,0.371c-0.336,0.247-0.595,0.607-0.777,1.079
		s-0.312,1.248-0.387,2.329s-0.125,2.181-0.151,3.301c-0.651-0.013-1.285-0.02-1.903-0.02
		C154.258,226.176,153.553,226.183,152.791,226.195z"/>
</g>
<g>
	<defs>
		<rect id="SVGID_5_" width="257.619" height="275.615"/>
	</defs>
	<clipPath id="SVGID_6_">
		<use xlink:href="#SVGID_5_"  overflow="visible"/>
	</clipPath>
	<path clip-path="url(#SVGID_6_)" d="M62.089,92.196c-8.616,0-15.625,6.99-15.625,15.583c0,8.592,7.009,15.583,15.625,15.583
		c8.615,0,15.625-6.991,15.625-15.583C77.714,99.187,70.704,92.196,62.089,92.196 M62.786,98.978l3.478-2.526
		c0.218-0.159,0.309-0.44,0.226-0.695l-0.199-0.611c2.709,0.882,5.032,2.608,6.676,4.865h-0.625c-0.269,0-0.508,0.174-0.591,0.431
		l-1.34,4.125l-3.504,1.541l-4.121-2.995V98.978z M58.037,95.145l-0.198,0.611c-0.083,0.256,0.008,0.537,0.226,0.695l3.477,2.527
		v4.134l-4.121,2.995l-3.505-1.541l-1.34-4.126c-0.083-0.257-0.323-0.43-0.591-0.43h-0.624
		C53.005,97.753,55.329,96.027,58.037,95.145 M52.139,114.694c-0.269,0-0.507,0.173-0.591,0.43l-0.193,0.593
		c-1.607-2.207-2.567-4.915-2.567-7.85c0-0.003,0.001-0.006,0.001-0.01l0.523,0.381c0.11,0.079,0.238,0.12,0.367,0.12
		c0.127,0,0.256-0.04,0.365-0.12l3.444-2.503l3.505,1.541l1.589,4.893l-2.119,2.525H52.139z M65.783,120.21l0.518,0.377
		c-1.304,0.424-2.693,0.663-4.137,0.663c-1.444,0-2.833-0.237-4.137-0.663l0.518-0.378c0.218-0.158,0.309-0.44,0.226-0.695
		l-1.32-4.061l2.12-2.523h5.186l2.117,2.523l-1.319,4.061C65.472,119.771,65.563,120.053,65.783,120.21 M72.972,115.72l-0.193-0.595
		c-0.084-0.257-0.323-0.43-0.592-0.43l-4.323,0.001l-2.117-2.524l1.589-4.893l3.505-1.541l3.443,2.501
		c0.109,0.08,0.238,0.121,0.366,0.121c0.129,0,0.258-0.041,0.366-0.121l0.524-0.38c0,0.003,0,0.007,0,0.01
		C75.54,110.803,74.578,113.511,72.972,115.72"/>
	<path clip-path="url(#SVGID_6_)" d="M199.589,92.196c-8.616,0-15.625,6.99-15.625,15.583c0,8.592,7.009,15.583,15.625,15.583
		c8.615,0,15.625-6.991,15.625-15.583C215.214,99.187,208.204,92.196,199.589,92.196 M200.286,98.978l3.478-2.526
		c0.218-0.159,0.309-0.44,0.226-0.695l-0.198-0.611c2.709,0.882,5.031,2.608,6.676,4.865h-0.625c-0.27,0-0.508,0.174-0.591,0.431
		l-1.34,4.125l-3.505,1.541l-4.12-2.995V98.978z M195.537,95.145l-0.198,0.611c-0.083,0.256,0.008,0.537,0.226,0.695l3.478,2.527
		v4.134l-4.121,2.995l-3.505-1.541l-1.34-4.126c-0.083-0.257-0.323-0.43-0.592-0.43h-0.624
		C190.505,97.753,192.829,96.027,195.537,95.145 M189.639,114.694c-0.269,0-0.507,0.173-0.591,0.43l-0.193,0.593
		c-1.606-2.207-2.566-4.915-2.566-7.85c0-0.003,0.001-0.006,0.001-0.01l0.522,0.381c0.11,0.079,0.238,0.12,0.367,0.12
		c0.127,0,0.256-0.04,0.365-0.12l3.443-2.503l3.506,1.541l1.589,4.893l-2.119,2.525H189.639z M203.282,120.21l0.519,0.377
		c-1.304,0.424-2.693,0.663-4.137,0.663c-1.444,0-2.833-0.237-4.138-0.663l0.519-0.378c0.218-0.158,0.309-0.44,0.226-0.695
		l-1.319-4.061l2.119-2.523h5.187l2.117,2.523l-1.319,4.061C202.972,119.771,203.063,120.053,203.282,120.21 M210.472,115.72
		l-0.193-0.595c-0.084-0.257-0.322-0.43-0.592-0.43l-4.323,0.001l-2.116-2.524l1.589-4.893l3.505-1.541l3.442,2.501
		c0.109,0.08,0.238,0.121,0.366,0.121c0.129,0,0.258-0.041,0.366-0.121l0.524-0.38c0,0.003,0,0.007,0,0.01
		C213.04,110.803,212.078,113.511,210.472,115.72"/>
</g>
</svg>
