<svg width="81" height="81" viewBox="0 0 81 81" fill="none" xmlns="http://www.w3.org/2000/svg">
<g clip-path="url(#clip0_22_919)">
<path d="M15.5681 11.5049H10.3839C8.98168 11.5049 7.84521 10.3685 7.84521 8.96626C7.84521 7.56469 8.98168 6.42822 10.3839 6.42822H15.5681C16.9703 6.42822 18.1068 7.56469 18.1068 8.96626C18.1068 10.3685 16.9703 11.5049 15.5681 11.5049Z" fill="#D8D6D4"/>
<path d="M15.5681 24.1178H10.3839C8.98168 24.1178 7.84521 22.9814 7.84521 21.5798C7.84521 20.1782 8.98168 19.0417 10.3839 19.0417H15.5681C16.9703 19.0417 18.1068 20.1782 18.1068 21.5798C18.1068 22.9814 16.9703 24.1178 15.5681 24.1178Z" fill="#D8D6D4"/>
<path d="M15.5681 36.7315H10.3839C8.98168 36.7315 7.84521 35.595 7.84521 34.1934C7.84521 32.7912 8.98168 31.6554 10.3839 31.6554H15.5681C16.9703 31.6554 18.1068 32.7912 18.1068 34.1934C18.1068 35.595 16.9703 36.7315 15.5681 36.7315Z" fill="#D8D6D4"/>
<path d="M15.5681 49.3451H10.3839C8.98168 49.3451 7.84521 48.2087 7.84521 46.8065C7.84521 45.4049 8.98168 44.2684 10.3839 44.2684H15.5681C16.9703 44.2684 18.1068 45.4049 18.1068 46.8065C18.1068 48.2087 16.9703 49.3451 15.5681 49.3451Z" fill="#D8D6D4"/>
<path d="M15.5681 61.958H10.3839C8.98168 61.958 7.84521 60.8216 7.84521 59.42C7.84521 58.0184 8.98168 56.882 10.3839 56.882H15.5681C16.9703 56.882 18.1068 58.0184 18.1068 59.42C18.1068 60.8216 16.9703 61.958 15.5681 61.958Z" fill="#D8D6D4"/>
<path d="M15.5681 74.5717H10.3839C8.98168 74.5717 7.84521 73.4352 7.84521 72.0337C7.84521 70.6321 8.98168 69.4956 10.3839 69.4956H15.5681C16.9703 69.4956 18.1068 70.6321 18.1068 72.0337C18.1068 73.4352 16.9703 74.5717 15.5681 74.5717Z" fill="#D8D6D4"/>
<path d="M71.4262 79.7992H14.5614C13.5356 79.7992 12.7038 78.9674 12.7038 77.9415V3.05783C12.7038 2.03261 13.5356 1.20081 14.5614 1.20081H71.4262C72.452 1.20081 73.2832 2.03261 73.2832 3.05783V77.9421C73.2832 78.9674 72.452 79.7992 71.4262 79.7992Z" fill="#E88C38"/>
<path d="M71.4262 1.20081H64.0506V79.7992H71.4262C72.452 79.7992 73.2832 78.9674 73.2832 77.9421V3.05783C73.2832 2.03261 72.452 1.20081 71.4262 1.20081Z" fill="#D38231"/>
<path d="M45.1966 18.739H40.791L40.3498 14.5244C40.2657 13.7167 40.8992 13.014 41.7112 13.014H44.2764C45.0885 13.014 45.7219 13.7167 45.6378 14.5244L45.1966 18.739Z" fill="white"/>
<path d="M59.841 35.9819H26.1468V34.5506C26.1468 25.2463 33.6899 17.7032 42.9936 17.7032C52.2979 17.7032 59.841 25.2463 59.841 34.5506V35.9819Z" fill="#E2E2E2"/>
<path d="M42.9935 17.7032C41.3929 17.7032 39.8443 17.927 38.3772 18.3441C45.437 20.3513 50.6077 26.8469 50.6077 34.5506V35.9819H59.8409V34.5506C59.8409 25.2463 52.2978 17.7032 42.9935 17.7032Z" fill="#C9C9C9"/>
<path d="M62.1789 34.7601H23.8091C23.4396 34.7601 23.1398 35.0592 23.1398 35.4288V37.9069C23.1398 38.2758 23.4396 38.5755 23.8091 38.5755H62.1789C62.5485 38.5755 62.8476 38.2758 62.8476 37.9069V35.4288C62.8476 35.0592 62.5485 34.7601 62.1789 34.7601Z" fill="#D8D6D4"/>
<path d="M28.1199 60.2295C27.9636 60.5138 27.7213 60.599 27.4939 60.599C27.2665 60.599 27.0391 60.5138 26.8827 60.2295L25.2469 57.1575V63.3861C25.2469 63.7705 24.7779 63.9695 24.3231 63.9695C23.8534 63.9695 23.3986 63.7705 23.3986 63.3861V54.4977C23.3986 53.8155 23.8534 53.5739 24.3231 53.5739C24.9911 53.5739 25.2902 53.716 25.7592 54.5546L27.5088 57.7403L29.2576 54.5546C29.7273 53.716 30.04 53.5739 30.7087 53.5739C31.1777 53.5739 31.6325 53.8155 31.6325 54.4977V63.3861C31.6325 63.7705 31.1635 63.9695 30.7087 63.9695C30.239 63.9695 29.7842 63.7705 29.7842 63.3861V57.2712L28.1199 60.2295Z" fill="black"/>
<path d="M36.7796 58.0388H38.9413C39.3109 58.0388 39.5241 58.3947 39.5241 58.7785C39.5241 59.1054 39.3393 59.4898 38.9413 59.4898H36.7796V62.3479H40.8039C41.1741 62.3479 41.3873 62.7317 41.3873 63.1729C41.3873 63.5567 41.2025 63.9695 40.8039 63.9695H35.7414C35.3292 63.9695 34.9306 63.7699 34.9306 63.3861V54.1566C34.9306 53.7728 35.3286 53.5732 35.7414 53.5732H40.8039C41.2025 53.5732 41.3873 53.9861 41.3873 54.3698C41.3873 54.8111 41.1741 55.1948 40.8039 55.1948H36.7796V58.0388Z" fill="black"/>
<path d="M48.967 63.3861L45.9092 57.6692V63.3861C45.9092 63.7705 45.4402 63.9695 44.9847 63.9695C44.5157 63.9695 44.0602 63.7705 44.0602 63.3861V54.1566C44.0602 53.7586 44.5157 53.5739 44.9847 53.5739C45.6534 53.5739 45.9235 53.716 46.3647 54.5546L49.1091 59.8593V54.1424C49.1091 53.7444 49.564 53.5732 50.0336 53.5732C50.4885 53.5732 50.9575 53.7438 50.9575 54.1424V63.3861C50.9575 63.7699 50.4885 63.9695 50.0336 63.9695C49.5924 63.9695 49.2086 63.8274 48.967 63.3861Z" fill="black"/>
<path d="M59.1914 54.1424C59.1914 53.7444 59.6462 53.5739 60.1153 53.5739C60.5707 53.5739 61.0398 53.7444 61.0398 54.1424V60.798C61.0398 63.1729 59.5325 64.0548 57.6267 64.0548C55.7066 64.0548 54.2136 63.1729 54.2136 60.798V54.1424C54.2136 53.7444 54.6684 53.5739 55.1381 53.5739C55.5929 53.5739 56.0619 53.7444 56.0619 54.1424V60.798C56.0619 61.9073 56.6453 62.4338 57.6267 62.4338C58.608 62.4338 59.1908 61.9073 59.1908 60.798V54.1424H59.1914Z" fill="black"/>
<path d="M62.8474 66.785H56.0873C55.4236 66.785 54.8859 67.3227 54.8859 67.9858C54.8859 68.6495 55.4236 69.1865 56.0873 69.1865H62.8474C63.5111 69.1865 64.0481 68.6495 64.0481 67.9858C64.0481 67.3227 63.5111 66.785 62.8474 66.785Z" fill="black"/>
<path d="M50.4995 66.785H23.1396C22.4765 66.785 21.9389 67.3227 21.9389 67.9858C21.9389 68.6495 22.4765 69.1865 23.1396 69.1865H50.4995C51.1632 69.1865 51.7003 68.6495 51.7003 67.9858C51.7003 67.3227 51.1632 66.785 50.4995 66.785Z" fill="black"/>
<path d="M62.8474 48.4484H23.1396C22.4765 48.4484 21.9389 48.986 21.9389 49.6491C21.9389 50.3122 22.4765 50.8498 23.1396 50.8498H62.8474C63.5111 50.8498 64.0481 50.3122 64.0481 49.6491C64.0481 48.986 63.5111 48.4484 62.8474 48.4484Z" fill="black"/>
<path d="M62.1794 33.5595H61.0138C60.5639 25.2853 54.5158 18.4764 46.6001 16.8647L46.8318 14.6493C46.9078 13.9262 46.6717 13.202 46.1854 12.6625C45.699 12.1224 45.0032 11.8127 44.2764 11.8127H41.7112C40.9838 11.8127 40.2886 12.123 39.8016 12.6625C39.3153 13.2026 39.0798 13.9269 39.1559 14.6493L39.3876 16.8647C31.4719 18.4764 25.4237 25.2847 24.9738 33.5588H23.8083C22.7775 33.5588 21.9389 34.3974 21.9389 35.4282V37.9063C21.9389 38.9371 22.7775 39.7757 23.8083 39.7757H62.1787C63.2095 39.7757 64.0481 38.9371 64.0481 37.9063V35.4282C64.0481 34.3981 63.2101 33.5595 62.1794 33.5595ZM41.5864 14.2698C41.6197 14.2334 41.6611 14.2148 41.7112 14.2148H44.2764C44.3259 14.2148 44.3679 14.2334 44.4013 14.2698C44.4346 14.3069 44.4489 14.3508 44.4433 14.3996L44.219 16.5452C43.8142 16.518 43.4057 16.5026 42.9941 16.5026C42.5819 16.5026 42.1741 16.518 41.7693 16.5452L41.5443 14.3996C41.5394 14.3508 41.5536 14.3069 41.5864 14.2698ZM61.6467 37.3742H24.341V35.9609H29.4016C30.0654 35.9609 30.603 35.4233 30.603 34.7602C30.603 34.0971 30.0654 33.5595 29.4016 33.5595H27.3802C27.8932 25.3922 34.6996 18.9047 42.9935 18.9047C51.2881 18.9047 58.0945 25.3922 58.6074 33.5595H34.9894C34.3257 33.5595 33.7887 34.0971 33.7887 34.7602C33.7887 35.4233 34.3257 35.9609 34.9894 35.9609H61.6467V37.3742Z" fill="black"/>
<path d="M71.4262 0H14.5615C12.8756 0 11.5037 1.37192 11.5037 3.05776V5.22687H10.3833C8.32173 5.22687 6.64453 6.90469 6.64453 8.96627C6.64453 11.0278 8.32173 12.7057 10.3833 12.7057H11.5037V17.8405H10.3833C8.32173 17.8405 6.64453 19.5177 6.64453 21.5799C6.64453 23.6414 8.32173 25.3186 10.3833 25.3186H11.5037V30.454H10.3833C8.32173 30.454 6.64453 32.1312 6.64453 34.1934C6.64453 36.255 8.32173 37.9322 10.3833 37.9322H11.5037V43.0676H10.3833C8.32173 43.0676 6.64453 44.7448 6.64453 46.8064C6.64453 48.8686 8.32173 50.5458 10.3833 50.5458H11.5037V55.6812H10.3833C8.32173 55.6812 6.64453 57.3584 6.64453 59.42C6.64453 61.4822 8.32173 63.1594 10.3833 63.1594H11.5037V68.2948H10.3833C8.32173 68.2948 6.64453 69.972 6.64453 72.0336C6.64453 74.0952 8.32173 75.773 10.3833 75.773H11.5037V77.9421C11.5037 79.6279 12.8756 80.9998 14.5615 80.9998H71.4262C73.1121 80.9998 74.4846 79.6279 74.4846 77.9421V3.05776C74.4846 1.37192 73.1121 0 71.4262 0V0ZM11.5031 10.3042H10.3833C9.64606 10.3042 9.04601 9.70414 9.04601 8.96627C9.04601 8.22902 9.64606 7.62896 10.3833 7.62896H11.5031V10.3042ZM11.5031 22.9172H10.3833C9.64606 22.9172 9.04601 22.3171 9.04601 21.5799C9.04601 20.842 9.64606 20.2425 10.3833 20.2425H11.5031V22.9172ZM11.5031 35.5307H10.3833C9.64606 35.5307 9.04601 34.9307 9.04601 34.1934C9.04601 33.4556 9.64606 32.8555 10.3833 32.8555H11.5031V35.5307ZM11.5031 48.1443H10.3833C9.64606 48.1443 9.04601 47.5443 9.04601 46.8064C9.04601 46.0692 9.64606 45.4691 10.3833 45.4691H11.5031V48.1443ZM11.5031 60.7573H10.3833C9.64606 60.7573 9.04601 60.1579 9.04601 59.42C9.04601 58.6827 9.64606 58.0827 10.3833 58.0827H11.5031V60.7573ZM11.5031 73.3709H10.3833C9.64606 73.3709 9.04601 72.7708 9.04601 72.0336C9.04601 71.2957 9.64606 70.6963 10.3833 70.6963H11.5031V73.3709ZM72.0825 77.9415C72.0825 78.3036 71.7884 78.5984 71.4262 78.5984H14.5615C14.1993 78.5984 13.9052 78.3036 13.9052 77.9415V3.05776C13.9052 2.69625 14.1993 2.40147 14.5615 2.40147H71.4262C71.7884 2.40147 72.0825 2.69625 72.0825 3.05776V77.9415Z" fill="black"/>
</g>
<defs>
<clipPath id="clip0_22_919">
<rect width="81" height="81" fill="white"/>
</clipPath>
</defs>
</svg>
