<svg width="26" height="26" viewBox="0 0 26 26" fill="none" xmlns="http://www.w3.org/2000/svg">
<g clip-path="url(#clip0)">
<path d="M24.6824 18.8825L18.3773 1.40634C18.069 0.552043 17.2831 0 16.375 0C15.4669 0 14.681 0.552043 14.3727 1.40634L13.2745 4.45006C13.2031 4.64791 13.3057 4.86616 13.5035 4.93756C13.7014 5.00906 13.9196 4.90643 13.991 4.70859L15.0891 1.66486C15.3295 0.998969 15.9109 0.761719 16.375 0.761719C16.839 0.761719 17.4205 0.998969 17.6608 1.66486L20.465 9.43764H16.4348C15.0703 6.42754 11.88 4.39893 8.60493 4.39893C3.90797 4.39898 0 8.34925 0 13.004C0 13.0064 0.000101563 13.0088 0.000101563 13.0113C0.0112734 17.4192 3.68266 21.4415 7.97753 21.6089H24.7724C25.508 21.6089 26.1064 21.0103 26.1064 20.2744C26.1064 19.471 25.4709 18.8435 24.6824 18.8825ZM20.7399 10.1994L21.8412 13.2519H17.2056C17.2281 12.1879 17.0733 11.16 16.7401 10.1994H20.7399ZM16.4443 13.2408C16.3982 14.7872 15.9024 16.2225 15.0832 17.4202H12.2657L10.9855 15.923L12.0742 12.5723L14.1996 11.61L16.4443 13.2408ZM10.2806 15.6274H6.92936L5.89377 12.4402L8.60498 10.4704L11.3162 12.4402L10.2806 15.6274ZM16.4143 12.2774L14.692 11.0262L15.349 9.00412C15.9297 9.97938 16.3047 11.0904 16.4143 12.2774ZM14.8067 8.20823L13.9341 10.8941L11.8086 11.8564L8.98584 9.80561V7.26847L11.2531 5.62123C12.6707 6.13123 13.9001 7.03848 14.8067 8.20823ZM10.3279 5.35184L8.60498 6.60364L6.88203 5.35184C7.99145 5.10047 9.21405 5.09976 10.3279 5.35184ZM5.95689 5.62118L8.22412 7.26842V9.80555L5.4014 11.8564L3.2759 10.8941L2.40322 8.20823C3.30982 7.03848 4.53929 6.13123 5.95689 5.62118ZM1.86088 9.00407L2.51789 11.0261L0.795641 12.2774C0.905227 11.0904 1.28025 9.97938 1.86088 9.00407ZM2.12667 17.4202C1.30757 16.2225 0.811687 14.7872 0.765629 13.2408L3.01031 11.61L5.13576 12.5723L6.22446 15.923L4.94421 17.4202H2.12667ZM2.71923 18.1819H4.84301L5.50073 20.2061C4.42909 19.7424 3.4807 19.0465 2.71923 18.1819ZM10.802 20.5336C10.1046 20.7374 9.36736 20.8472 8.60498 20.8472C7.84261 20.8472 7.10541 20.7374 6.40798 20.5336L5.54785 17.8864L6.8281 16.3891H10.3819L11.6621 17.8864L10.802 20.5336ZM12.367 18.1819H14.4907C13.7293 19.0465 12.7809 19.7424 11.7093 20.2061L12.367 18.1819ZM25.3447 20.2744C25.3447 20.5903 25.088 20.8472 24.7724 20.8472H12.1413C13.5036 20.2306 14.6779 19.2697 15.5521 18.0754C15.5844 18.0443 15.6111 18.0075 15.6308 17.9668C16.4411 16.823 16.9787 15.4735 17.15 14.0136H22.116L23.8727 18.8825H16.0482C15.8379 18.8825 15.6673 19.053 15.6673 19.2634C15.6673 19.4737 15.8379 19.6442 16.0482 19.6442H24.4136C24.4141 19.6442 24.4145 19.6443 24.4149 19.6443C24.4157 19.6443 24.4164 19.6442 24.4172 19.6442H24.7724C25.1056 19.642 25.3447 19.9372 25.3447 20.2744Z" fill="#333333"/>
</g>
<defs>
<clipPath id="clip0">
<rect width="26" height="26" fill="white"/>
</clipPath>
</defs>
</svg>
