<?xml version="1.0" encoding="utf-8"?>
<!-- Generator: Adobe Illustrator 16.0.0, SVG Export Plug-In . SVG Version: 6.00 Build 0)  -->
<!DOCTYPE svg PUBLIC "-//W3C//DTD SVG 1.1//EN" "http://www.w3.org/Graphics/SVG/1.1/DTD/svg11.dtd">
<svg version="1.1" id="Calque_1" xmlns="http://www.w3.org/2000/svg" xmlns:xlink="http://www.w3.org/1999/xlink" x="0px" y="0px"
	 width="61.506px" height="62.104px" viewBox="0 0 61.506 62.104" enable-background="new 0 0 61.506 62.104" xml:space="preserve">
<g>
	<polygon fill="#FEDDB0" points="27.905,12.797 27.905,16.699 30.767,18.093 33.627,17.28 33.627,12.982 	"/>
	<polygon fill="#FEDDB0" points="32.583,36.362 28.937,36.362 22.621,36.362 22.621,39.968 23.382,48.024 23.871,60.659 
		27.901,60.659 28.641,48.024 29.426,42.78 30.487,41.446 31.034,41.446 32.094,42.776 33.043,48.024 33.577,60.659 37.74,60.542 
		38.097,48.024 38.898,39.968 38.898,36.362 	"/>
	<polygon fill="#0387BB" points="32.583,36.362 28.937,36.362 22.621,36.362 22.621,39.968 22.812,45.593 29.866,45.593 
		30.155,42.78 30.487,41.446 31.034,41.446 31.366,42.776 31.653,45.596 38.707,45.593 38.898,39.968 38.898,36.362 	"/>
	<polygon fill="#FEDDB0" points="26.485,6.456 26.071,6.226 25.692,6.344 25.692,8.21 26.912,9.354 	"/>
	<polygon fill="#FEDDB0" points="35.015,6.426 35.433,6.197 35.815,6.311 35.815,8.182 34.594,9.325 	"/>
	<polygon fill="#FEDDB0" points="26.071,3.56 31.948,1.271 35.38,3.953 34.805,12.741 30.761,13.858 26.714,12.835 	"/>
	<polygon fill="#F49D17" points="26.071,3.56 28.849,2.477 31.212,0 33.627,1.838 35.38,3.953 35.079,7.173 34.607,7.173 
		34.269,4.435 27.146,5.222 26.79,7.173 26.348,7.173 	"/>
	<polygon fill="#096EB5" points="38.898,36.362 32.583,36.362 28.937,36.362 22.621,36.362 22.621,36.569 38.898,36.378 	"/>
	<path fill="#C3E5F4" d="M39.255,38.124H22.111l-0.468-22.735h4.704c0,0,3.254,1.159,4.419,1.162
		c1.181,0.005,4.416-1.162,4.416-1.162h4.68L39.255,38.124z"/>
	<g>
		<g>
			<g>
				<polygon fill="#FEDDB0" points="54.46,5.128 55.69,2.494 52.286,0.07 51.372,3.691 				"/>
			</g>
		</g>
		<g>
			<g>
				<g>
					<polygon fill="#FEDDB0" points="39.722,15.335 39.347,23.08 40.36,22.687 48.194,14.804 49.786,13.577 54.46,5.128 
						51.372,3.691 45.728,11.107 					"/>
				</g>
			</g>
			<g>
				<g>
					<polygon fill="#C3E5F4" points="40.706,22.752 39.534,23.128 37.446,15.761 43.087,12.933 46.494,16.735 					"/>
				</g>
			</g>
			<polygon fill="#0387BB" points="45.621,17.629 44.888,18.417 41.503,14.058 42.228,13.563 			"/>
		</g>
	</g>
	<g>
		<g>
			<g>
				<polygon fill="#FEDDB0" points="7.073,5.128 5.844,2.494 9.247,0.07 10.161,3.691 				"/>
			</g>
		</g>
		<g>
			<g>
				<g>
					<polygon fill="#FEDDB0" points="21.813,15.335 22.187,23.08 21.173,22.687 13.339,14.804 11.747,13.577 7.073,5.128 
						10.161,3.691 15.806,11.107 					"/>
				</g>
			</g>
			<g>
				<g>
					<polygon fill="#C3E5F4" points="20.828,22.752 21.999,23.128 23.497,15.444 18.446,12.933 15.04,16.735 					"/>
				</g>
			</g>
			<polygon fill="#0387BB" points="15.913,17.629 16.646,18.417 20.03,14.058 19.307,13.563 			"/>
		</g>
	</g>
	<path fill="#0974A0" d="M23.423,62.104h4.615c0,0,0.887-2.024-2.309-2.51C25.729,59.595,23.021,59.759,23.423,62.104z"/>
	<path fill="#0974A0" d="M38.055,62.104h-4.616c0,0-0.891-2.024,2.309-2.51C35.747,59.595,38.456,59.759,38.055,62.104z"/>
	<g>
		<g>
			<polygon fill="#EA5048" points="12.485,24.247 0.62,24.247 0.62,24.335 2.024,25.132 0.62,25.295 0.62,25.541 1.754,25.857 
				2.294,26.757 0.62,27.187 0.62,27.896 2.024,28.45 0.638,29.712 12.485,29.712 			"/>
			<rect x="8.003" y="27.467" fill="#EA5048" width="11.865" height="5.464"/>
			<polygon fill="#D11E1E" points="17.958,29.435 19.868,27.467 19.868,29.435 			"/>
			<polygon fill="#D11E1E" points="8.003,27.467 12.485,24.247 12.485,27.467 			"/>
			<polygon fill="none" points="0.62,25.295 0.022,25.365 0.022,25.374 0.62,25.541 			"/>
			<polygon fill="#EA5048" points="0,25.366 0.022,25.374 0.022,25.365 			"/>
		</g>
		<g>
			<polygon fill="#EA5048" points="49.021,24.247 60.886,24.247 60.886,24.335 59.48,25.132 60.886,25.295 60.886,25.541 
				59.751,25.857 59.211,26.757 60.886,27.187 60.886,27.896 59.48,28.45 60.868,29.712 49.021,29.712 			"/>
			<rect x="41.638" y="27.467" fill="#EA5048" width="11.865" height="5.464"/>
			<polygon fill="#D11E1E" points="43.548,29.435 41.638,27.467 41.638,29.435 			"/>
			<polygon fill="#D11E1E" points="53.503,27.467 49.021,24.247 49.021,27.467 			"/>
			<polygon fill="none" points="60.886,25.295 61.483,25.365 61.483,25.374 60.886,25.541 			"/>
			<polygon fill="#EA5048" points="61.506,25.366 61.483,25.374 61.483,25.365 			"/>
		</g>
		<rect x="17.958" y="29.435" fill="#EA5048" width="25.59" height="5.463"/>
	</g>
</g>
</svg>
